<?xml version="1.0" encoding="UTF-8" standalone="no"?><svg xmlns="http://www.w3.org/2000/svg" xmlns:xlink="http://www.w3.org/1999/xlink" clip-rule="evenodd" stroke-miterlimit="10" viewBox="0 0 1024 768"><desc>SVG generated by Keynote</desc><defs></defs><g transform="matrix(1.00, 0.00, -0.00, -1.00, 0.0, 768.0)"><path d="M 0.0 768.0 L 1024.0 768.0 L 1024.0 0.0 L 0.0 0.0 Z M 0.0 768.0 " fill="#FEFFFF"></path><text xml:space="preserve" font-family="Times-Bold,Times" font-weight="bold" font-size="52.2" fill="#000000" transform="matrix(1.00, 0.00, -0.00, -1.00, 12.0, 677.1)">H</text><text xml:space="preserve" font-family="Times-Bold,Times" font-weight="bold" font-size="52.2" fill="#000000" transform="matrix(1.00, 0.00, -0.00, -1.00, 52.6, 677.1)">a</text><text xml:space="preserve" font-family="Times-Bold,Times" font-weight="bold" font-size="52.2" fill="#000000" transform="matrix(1.00, 0.00, -0.00, -1.00, 78.7, 677.1)">n</text><text xml:space="preserve" font-family="Times-Bold,Times" font-weight="bold" font-size="52.2" fill="#000000" transform="matrix(1.00, 0.00, -0.00, -1.00, 107.7, 677.1)">d</text><text xml:space="preserve" font-family="Times-Bold,Times" font-weight="bold" font-size="52.2" fill="#000000" transform="matrix(1.00, 0.00, -0.00, -1.00, 136.7, 677.1)">s</text><text xml:space="preserve" font-family="Times-Bold,Times" font-weight="bold" font-size="52.2" fill="#000000" transform="matrix(1.00, 0.00, -0.00, -1.00, 157.1, 677.1)">-</text><text xml:space="preserve" font-family="Times-Bold,Times" font-weight="bold" font-size="52.2" fill="#000000" transform="matrix(1.00, 0.00, -0.00, -1.00, 174.4, 677.1)">o</text><text xml:space="preserve" font-family="Times-Bold,Times" font-weight="bold" font-size="52.2" fill="#000000" transform="matrix(1.00, 0.00, -0.00, -1.00, 200.5, 677.1)">n</text><text xml:space="preserve" font-family="Times-Bold,Times" font-weight="bold" font-size="52.2" fill="#000000" transform="matrix(1.00, 0.00, -0.00, -1.00, 229.6, 677.1)">:</text><text xml:space="preserve" font-family="Times-Bold,Times" font-weight="bold" font-size="52.2" fill="#000000" transform="matrix(1.00, 0.00, -0.00, -1.00, 247.0, 677.1)"> </text><text xml:space="preserve" font-family="Times-Bold,Times" font-weight="bold" font-size="52.2" fill="#000000" transform="matrix(1.00, 0.00, -0.00, -1.00, 260.0, 677.1)">C</text><text xml:space="preserve" font-family="Times-Bold,Times" font-weight="bold" font-size="52.2" fill="#000000" transform="matrix(1.00, 0.00, -0.00, -1.00, 297.7, 677.1)">a</text><text xml:space="preserve" font-family="Times-Bold,Times" font-weight="bold" font-size="52.2" fill="#000000" transform="matrix(1.00, 0.00, -0.00, -1.00, 323.8, 677.1)">t</text><text xml:space="preserve" font-family="Times-Bold,Times" font-weight="bold" font-size="52.2" fill="#000000" transform="matrix(1.00, 0.00, -0.00, -1.00, 341.2, 677.1)"> </text><text xml:space="preserve" font-family="Times-Bold,Times" font-weight="bold" font-size="52.2" fill="#000000" transform="matrix(1.00, 0.00, -0.00, -1.00, 354.3, 677.1)">c</text><text xml:space="preserve" font-family="Times-Bold,Times" font-weight="bold" font-size="52.2" fill="#000000" transform="matrix(1.00, 0.00, -0.00, -1.00, 377.4, 677.1)">l</text><text xml:space="preserve" font-family="Times-Bold,Times" font-weight="bold" font-size="52.2" fill="#000000" transform="matrix(1.00, 0.00, -0.00, -1.00, 391.9, 677.1)">o</text><text xml:space="preserve" font-family="Times-Bold,Times" font-weight="bold" font-size="52.2" fill="#000000" transform="matrix(1.00, 0.00, -0.00, -1.00, 418.0, 677.1)">s</text><text xml:space="preserve" font-family="Times-Bold,Times" font-weight="bold" font-size="52.2" fill="#000000" transform="matrix(1.00, 0.00, -0.00, -1.00, 438.3, 677.1)">e</text><text xml:space="preserve" font-family="Times-Bold,Times" font-weight="bold" font-size="52.2" fill="#000000" transform="matrix(1.00, 0.00, -0.00, -1.00, 461.5, 677.1)">r</text><text xml:space="preserve" font-family="Times-Bold,Times" font-weight="bold" font-size="52.2" fill="#000000" transform="matrix(1.00, 0.00, -0.00, -1.00, 483.7, 677.1)"> </text><text xml:space="preserve" font-family="Times-Bold,Times" font-weight="bold" font-size="52.2" fill="#000000" transform="matrix(1.00, 0.00, -0.00, -1.00, 496.8, 677.1)">t</text><text xml:space="preserve" font-family="Times-Bold,Times" font-weight="bold" font-size="52.2" fill="#000000" transform="matrix(1.00, 0.00, -0.00, -1.00, 514.2, 677.1)">o</text><text xml:space="preserve" font-family="Times-Bold,Times" font-weight="bold" font-size="52.2" fill="#000000" transform="matrix(1.00, 0.00, -0.00, -1.00, 540.3, 677.1)"> </text><text xml:space="preserve" font-family="Times-Bold,Times" font-weight="bold" font-size="52.2" fill="#000000" transform="matrix(1.00, 0.00, -0.00, -1.00, 553.3, 677.1)">E</text><text xml:space="preserve" font-family="Times-Bold,Times" font-weight="bold" font-size="52.2" fill="#000000" transform="matrix(1.00, 0.00, -0.00, -1.00, 588.1, 677.1)">d</text><text xml:space="preserve" font-family="Times-Bold,Times" font-weight="bold" font-size="52.2" fill="#000000" transform="matrix(1.00, 0.00, -0.00, -1.00, 617.2, 677.1)">g</text><text xml:space="preserve" font-family="Times-Bold,Times" font-weight="bold" font-size="52.2" fill="#000000" transform="matrix(1.00, 0.00, -0.00, -1.00, 643.3, 677.1)">e</text><text xml:space="preserve" font-family="Times-Bold,Times" font-weight="bold" font-size="52.2" fill="#000000" transform="matrix(1.00, 0.00, -0.00, -1.00, 666.4, 677.1)">,</text><text xml:space="preserve" font-family="Times-Bold,Times" font-weight="bold" font-size="52.2" fill="#000000" transform="matrix(1.00, 0.00, -0.00, -1.00, 679.5, 677.1)"> </text><text xml:space="preserve" font-family="Times-Bold,Times" font-weight="bold" font-size="52.2" fill="#000000" transform="matrix(1.00, 0.00, -0.00, -1.00, 692.5, 677.1)">b</text><text xml:space="preserve" font-family="Times-Bold,Times" font-weight="bold" font-size="52.2" fill="#000000" transform="matrix(1.00, 0.00, -0.00, -1.00, 721.6, 677.1)">r</text><text xml:space="preserve" font-family="Times-Bold,Times" font-weight="bold" font-size="52.2" fill="#000000" transform="matrix(1.00, 0.00, -0.00, -1.00, 744.7, 677.1)">i</text><text xml:space="preserve" font-family="Times-Bold,Times" font-weight="bold" font-size="52.2" fill="#000000" transform="matrix(1.00, 0.00, -0.00, -1.00, 759.2, 677.1)">g</text><text xml:space="preserve" font-family="Times-Bold,Times" font-weight="bold" font-size="52.2" fill="#000000" transform="matrix(1.00, 0.00, -0.00, -1.00, 785.3, 677.1)">h</text><text xml:space="preserve" font-family="Times-Bold,Times" font-weight="bold" font-size="52.2" fill="#000000" transform="matrix(1.00, 0.00, -0.00, -1.00, 814.4, 677.1)">t</text><text xml:space="preserve" font-family="Times-Bold,Times" font-weight="bold" font-size="52.2" fill="#000000" transform="matrix(1.00, 0.00, -0.00, -1.00, 831.8, 677.1)">e</text><text xml:space="preserve" font-family="Times-Bold,Times" font-weight="bold" font-size="52.2" fill="#000000" transform="matrix(1.00, 0.00, -0.00, -1.00, 854.9, 677.1)">r</text><text xml:space="preserve" font-family="Times-Bold,Times" font-weight="bold" font-size="52.2" fill="#000000" transform="matrix(1.00, 0.00, -0.00, -1.00, 877.2, 677.1)"> </text><text xml:space="preserve" font-family="Times-Bold,Times" font-weight="bold" font-size="52.2" fill="#000000" transform="matrix(1.00, 0.00, -0.00, -1.00, 890.2, 677.1)">L</text><text xml:space="preserve" font-family="Times-Bold,Times" font-weight="bold" font-size="52.2" fill="#000000" transform="matrix(1.00, 0.00, -0.00, -1.00, 925.0, 677.1)">i</text><text xml:space="preserve" font-family="Times-Bold,Times" font-weight="bold" font-size="52.2" fill="#000000" transform="matrix(1.00, 0.00, -0.00, -1.00, 939.5, 677.1)">g</text><text xml:space="preserve" font-family="Times-Bold,Times" font-weight="bold" font-size="52.2" fill="#000000" transform="matrix(1.00, 0.00, -0.00, -1.00, 965.6, 677.1)">h</text><text xml:space="preserve" font-family="Times-Bold,Times" font-weight="bold" font-size="52.2" fill="#000000" transform="matrix(1.00, 0.00, -0.00, -1.00, 994.7, 677.1)">t</text><image xlink:href="../../1DC7DFE0-E411-44F4-A29A-F273D24E23A1/assets/12CCD1DEAA2BE5FBCB4BCB7AA0BB7719.png" width="435.00" height="358.00" transform="matrix(1.00, 0.00, -0.00, -1.00, 585.9, 322.5)" opacity="0.70"></image><g><clipPath id="clip0x7faf7504d0c0"><path d="M 606.0 313.0 L 1001.0 313.0 L 1001.0 -5.0 L 606.0 -5.0 Z M 605.9 312.5 "></path></clipPath><g clip-path="url(#clip0x7faf7504d0c0)"><image xlink:href="../../59AF8132-DE29-4119-86F3-C53B93FB773C/assets/AF2D5E66B6CE471C4F4B597712116728.jpeg" width="3264.00" height="2448.00" transform="matrix(0.32, 0.00, -0.00, -0.32, -27.5, 653.6)"></image></g></g><text xml:space="preserve" font-family="Times-Roman,Times" font-size="30.8" fill="#000000" transform="matrix(1.00, 0.00, -0.00, -1.00, 15.2, 607.8)">•</text><text xml:space="preserve" font-family="Times-Roman,Times" font-size="41.0" fill="#000000" transform="matrix(1.00, 0.00, -0.00, -1.00, 55.0, 604.4)">W</text><text xml:space="preserve" font-family="Times-Roman,Times" font-size="41.0" fill="#000000" transform="matrix(1.00, 0.00, -0.00, -1.00, 93.7, 604.4)">h</text><text xml:space="preserve" font-family="Times-Roman,Times" font-size="41.0" fill="#000000" transform="matrix(1.00, 0.00, -0.00, -1.00, 114.2, 604.4)">e</text><text xml:space="preserve" font-family="Times-Roman,Times" font-size="41.0" fill="#000000" transform="matrix(1.00, 0.00, -0.00, -1.00, 132.4, 604.4)">n</text><text xml:space="preserve" font-family="Times-Roman,Times" font-size="41.0" fill="#000000" transform="matrix(1.00, 0.00, -0.00, -1.00, 152.9, 604.4)"> </text><text xml:space="preserve" font-family="Times-Roman,Times" font-size="41.0" fill="#000000" transform="matrix(1.00, 0.00, -0.00, -1.00, 163.2, 604.4)">a</text><text xml:space="preserve" font-family="Times-Roman,Times" font-size="41.0" fill="#000000" transform="matrix(1.00, 0.00, -0.00, -1.00, 181.4, 604.4)"> </text><text xml:space="preserve" font-family="Times-Roman,Times" font-size="41.0" fill="#000000" transform="matrix(1.00, 0.00, -0.00, -1.00, 191.6, 604.4)">c</text><text xml:space="preserve" font-family="Times-Roman,Times" font-size="41.0" fill="#000000" transform="matrix(1.00, 0.00, -0.00, -1.00, 209.8, 604.4)">a</text><text xml:space="preserve" font-family="Times-Roman,Times" font-size="41.0" fill="#000000" transform="matrix(1.00, 0.00, -0.00, -1.00, 228.0, 604.4)">t</text><text xml:space="preserve" font-family="Times-Roman,Times" font-size="41.0" fill="#000000" transform="matrix(1.00, 0.00, -0.00, -1.00, 239.4, 604.4)"> </text><text xml:space="preserve" font-family="Times-Roman,Times" font-size="41.0" fill="#000000" transform="matrix(1.00, 0.00, -0.00, -1.00, 249.6, 604.4)">m</text><text xml:space="preserve" font-family="Times-Roman,Times" font-size="41.0" fill="#000000" transform="matrix(1.00, 0.00, -0.00, -1.00, 281.5, 604.4)">o</text><text xml:space="preserve" font-family="Times-Roman,Times" font-size="41.0" fill="#000000" transform="matrix(1.00, 0.00, -0.00, -1.00, 302.0, 604.4)">v</text><text xml:space="preserve" font-family="Times-Roman,Times" font-size="41.0" fill="#000000" transform="matrix(1.00, 0.00, -0.00, -1.00, 322.5, 604.4)">e</text><text xml:space="preserve" font-family="Times-Roman,Times" font-size="41.0" fill="#000000" transform="matrix(1.00, 0.00, -0.00, -1.00, 340.7, 604.4)">s</text><text xml:space="preserve" font-family="Times-Roman,Times" font-size="41.0" fill="#000000" transform="matrix(1.00, 0.00, -0.00, -1.00, 356.7, 604.4)"> </text><text xml:space="preserve" font-family="Times-Roman,Times" font-size="41.0" fill="#000000" transform="matrix(1.00, 0.00, -0.00, -1.00, 366.9, 604.4)">t</text><text xml:space="preserve" font-family="Times-Roman,Times" font-size="41.0" fill="#000000" transform="matrix(1.00, 0.00, -0.00, -1.00, 378.3, 604.4)">o</text><text xml:space="preserve" font-family="Times-Roman,Times" font-size="41.0" fill="#000000" transform="matrix(1.00, 0.00, -0.00, -1.00, 398.8, 604.4)"> </text><text xml:space="preserve" font-family="Times-Roman,Times" font-size="41.0" fill="#000000" transform="matrix(1.00, 0.00, -0.00, -1.00, 409.0, 604.4)">r</text><text xml:space="preserve" font-family="Times-Roman,Times" font-size="41.0" fill="#000000" transform="matrix(1.00, 0.00, -0.00, -1.00, 422.7, 604.4)">i</text><text xml:space="preserve" font-family="Times-Roman,Times" font-size="41.0" fill="#000000" transform="matrix(1.00, 0.00, -0.00, -1.00, 434.1, 604.4)">g</text><text xml:space="preserve" font-family="Times-Roman,Times" font-size="41.0" fill="#000000" transform="matrix(1.00, 0.00, -0.00, -1.00, 454.6, 604.4)">h</text><text xml:space="preserve" font-family="Times-Roman,Times" font-size="41.0" fill="#000000" transform="matrix(1.00, 0.00, -0.00, -1.00, 475.1, 604.4)">t</text><text xml:space="preserve" font-family="Times-Roman,Times" font-size="41.0" fill="#000000" transform="matrix(1.00, 0.00, -0.00, -1.00, 486.5, 604.4)">/</text><text xml:space="preserve" font-family="Times-Roman,Times" font-size="41.0" fill="#000000" transform="matrix(1.00, 0.00, -0.00, -1.00, 497.8, 604.4)">l</text><text xml:space="preserve" font-family="Times-Roman,Times" font-size="41.0" fill="#000000" transform="matrix(1.00, 0.00, -0.00, -1.00, 509.2, 604.4)">e</text><text xml:space="preserve" font-family="Times-Roman,Times" font-size="41.0" fill="#000000" transform="matrix(1.00, 0.00, -0.00, -1.00, 527.4, 604.4)">f</text><text xml:space="preserve" font-family="Times-Roman,Times" font-size="41.0" fill="#000000" transform="matrix(1.00, 0.00, -0.00, -1.00, 541.1, 604.4)">t</text><text xml:space="preserve" font-family="Times-Roman,Times" font-size="41.0" fill="#000000" transform="matrix(1.00, 0.00, -0.00, -1.00, 552.5, 604.4)"> </text><text xml:space="preserve" font-family="Times-Roman,Times" font-size="41.0" fill="#000000" transform="matrix(1.00, 0.00, -0.00, -1.00, 55.0, 555.4)">a</text><text xml:space="preserve" font-family="Times-Roman,Times" font-size="41.0" fill="#000000" transform="matrix(1.00, 0.00, -0.00, -1.00, 73.2, 555.4)">n</text><text xml:space="preserve" font-family="Times-Roman,Times" font-size="41.0" fill="#000000" transform="matrix(1.00, 0.00, -0.00, -1.00, 93.7, 555.4)">d</text><text xml:space="preserve" font-family="Times-Roman,Times" font-size="41.0" fill="#000000" transform="matrix(1.00, 0.00, -0.00, -1.00, 114.2, 555.4)"> </text><text xml:space="preserve" font-family="Times-Roman,Times" font-size="41.0" fill="#000000" transform="matrix(1.00, 0.00, -0.00, -1.00, 124.5, 555.4)">i</text><text xml:space="preserve" font-family="Times-Roman,Times" font-size="41.0" fill="#000000" transform="matrix(1.00, 0.00, -0.00, -1.00, 135.9, 555.4)">t</text><text xml:space="preserve" font-family="Times-Roman,Times" font-size="41.0" fill="#000000" transform="matrix(1.00, 0.00, -0.00, -1.00, 147.2, 555.4)">’</text><text xml:space="preserve" font-family="Times-Roman,Times" font-size="41.0" fill="#000000" transform="matrix(1.00, 0.00, -0.00, -1.00, 158.7, 555.4)">s</text><text xml:space="preserve" font-family="Times-Roman,Times" font-size="41.0" fill="#000000" transform="matrix(1.00, 0.00, -0.00, -1.00, 174.6, 555.4)"> </text><text xml:space="preserve" font-family="Times-Bold,Times" font-weight="bold" font-size="41.0" fill="#000000" transform="matrix(1.00, 0.00, -0.00, -1.00, 184.9, 555.4)">c</text><text xml:space="preserve" font-family="Times-Bold,Times" font-weight="bold" font-size="41.0" fill="#000000" transform="matrix(1.00, 0.00, -0.00, -1.00, 203.1, 555.4)">l</text><text xml:space="preserve" font-family="Times-Bold,Times" font-weight="bold" font-size="41.0" fill="#000000" transform="matrix(1.00, 0.00, -0.00, -1.00, 214.5, 555.4)">o</text><text xml:space="preserve" font-family="Times-Bold,Times" font-weight="bold" font-size="41.0" fill="#000000" transform="matrix(1.00, 0.00, -0.00, -1.00, 235.0, 555.4)">s</text><text xml:space="preserve" font-family="Times-Bold,Times" font-weight="bold" font-size="41.0" fill="#000000" transform="matrix(1.00, 0.00, -0.00, -1.00, 250.9, 555.4)">e</text><text xml:space="preserve" font-family="Times-Bold,Times" font-weight="bold" font-size="41.0" fill="#000000" transform="matrix(1.00, 0.00, -0.00, -1.00, 269.1, 555.4)">r</text><text xml:space="preserve" font-family="Times-Bold,Times" font-weight="bold" font-size="41.0" fill="#000000" transform="matrix(1.00, 0.00, -0.00, -1.00, 286.6, 555.4)"> </text><text xml:space="preserve" font-family="Times-Bold,Times" font-weight="bold" font-size="41.0" fill="#000000" transform="matrix(1.00, 0.00, -0.00, -1.00, 296.8, 555.4)">t</text><text xml:space="preserve" font-family="Times-Bold,Times" font-weight="bold" font-size="41.0" fill="#000000" transform="matrix(1.00, 0.00, -0.00, -1.00, 310.5, 555.4)">o</text><text xml:space="preserve" font-family="Times-Bold,Times" font-weight="bold" font-size="41.0" fill="#000000" transform="matrix(1.00, 0.00, -0.00, -1.00, 331.0, 555.4)"> </text><text xml:space="preserve" font-family="Times-Bold,Times" font-weight="bold" font-size="41.0" fill="#000000" transform="matrix(1.00, 0.00, -0.00, -1.00, 341.2, 555.4)">e</text><text xml:space="preserve" font-family="Times-Bold,Times" font-weight="bold" font-size="41.0" fill="#000000" transform="matrix(1.00, 0.00, -0.00, -1.00, 359.4, 555.4)">d</text><text xml:space="preserve" font-family="Times-Bold,Times" font-weight="bold" font-size="41.0" fill="#000000" transform="matrix(1.00, 0.00, -0.00, -1.00, 382.2, 555.4)">g</text><text xml:space="preserve" font-family="Times-Bold,Times" font-weight="bold" font-size="41.0" fill="#000000" transform="matrix(1.00, 0.00, -0.00, -1.00, 402.7, 555.4)">e</text><text xml:space="preserve" font-family="Times-Bold,Times" font-weight="bold" font-size="41.0" fill="#000000" transform="matrix(1.00, 0.00, -0.00, -1.00, 420.9, 555.4)">s</text><text xml:space="preserve" font-family="Times-Roman,Times" font-size="41.0" fill="#000000" transform="matrix(1.00, 0.00, -0.00, -1.00, 436.9, 555.4)">,</text><text xml:space="preserve" font-family="Times-Roman,Times" font-size="41.0" fill="#000000" transform="matrix(1.00, 0.00, -0.00, -1.00, 447.2, 555.4)"> </text><text xml:space="preserve" font-family="Times-Roman,Times" font-size="41.0" fill="#000000" transform="matrix(1.00, 0.00, -0.00, -1.00, 457.4, 555.4)">c</text><text xml:space="preserve" font-family="Times-Roman,Times" font-size="41.0" fill="#000000" transform="matrix(1.00, 0.00, -0.00, -1.00, 475.6, 555.4)">h</text><text xml:space="preserve" font-family="Times-Roman,Times" font-size="41.0" fill="#000000" transform="matrix(1.00, 0.00, -0.00, -1.00, 496.1, 555.4)">a</text><text xml:space="preserve" font-family="Times-Roman,Times" font-size="41.0" fill="#000000" transform="matrix(1.00, 0.00, -0.00, -1.00, 514.3, 555.4)">n</text><text xml:space="preserve" font-family="Times-Roman,Times" font-size="41.0" fill="#000000" transform="matrix(1.00, 0.00, -0.00, -1.00, 534.8, 555.4)">g</text><text xml:space="preserve" font-family="Times-Roman,Times" font-size="41.0" fill="#000000" transform="matrix(1.00, 0.00, -0.00, -1.00, 555.3, 555.4)">e</text><text xml:space="preserve" font-family="Times-Roman,Times" font-size="41.0" fill="#000000" transform="matrix(1.00, 0.00, -0.00, -1.00, 573.5, 555.4)"> </text><text xml:space="preserve" font-family="Times-Roman,Times" font-size="41.0" fill="#000000" transform="matrix(1.00, 0.00, -0.00, -1.00, 55.0, 506.4)">t</text><text xml:space="preserve" font-family="Times-Roman,Times" font-size="41.0" fill="#000000" transform="matrix(1.00, 0.00, -0.00, -1.00, 66.4, 506.4)">h</text><text xml:space="preserve" font-family="Times-Roman,Times" font-size="41.0" fill="#000000" transform="matrix(1.00, 0.00, -0.00, -1.00, 86.9, 506.4)">e</text><text xml:space="preserve" font-family="Times-Roman,Times" font-size="41.0" fill="#000000" transform="matrix(1.00, 0.00, -0.00, -1.00, 105.1, 506.4)"> </text><text xml:space="preserve" font-family="Times-Roman,Times" font-size="41.0" fill="#000000" transform="matrix(1.00, 0.00, -0.00, -1.00, 115.4, 506.4)">L</text><text xml:space="preserve" font-family="Times-Roman,Times" font-size="41.0" fill="#000000" transform="matrix(1.00, 0.00, -0.00, -1.00, 140.4, 506.4)">E</text><text xml:space="preserve" font-family="Times-Roman,Times" font-size="41.0" fill="#000000" transform="matrix(1.00, 0.00, -0.00, -1.00, 165.4, 506.4)">D</text><text xml:space="preserve" font-family="Times-Roman,Times" font-size="41.0" fill="#000000" transform="matrix(1.00, 0.00, -0.00, -1.00, 195.1, 506.4)"> </text><text xml:space="preserve" font-family="Times-Bold,Times" font-weight="bold" font-size="41.0" fill="#000000" transform="matrix(1.00, 0.00, -0.00, -1.00, 205.3, 506.4)">l</text><text xml:space="preserve" font-family="Times-Bold,Times" font-weight="bold" font-size="41.0" fill="#000000" transform="matrix(1.00, 0.00, -0.00, -1.00, 216.7, 506.4)">i</text><text xml:space="preserve" font-family="Times-Bold,Times" font-weight="bold" font-size="41.0" fill="#000000" transform="matrix(1.00, 0.00, -0.00, -1.00, 228.1, 506.4)">g</text><text xml:space="preserve" font-family="Times-Bold,Times" font-weight="bold" font-size="41.0" fill="#000000" transform="matrix(1.00, 0.00, -0.00, -1.00, 248.6, 506.4)">h</text><text xml:space="preserve" font-family="Times-Bold,Times" font-weight="bold" font-size="41.0" fill="#000000" transform="matrix(1.00, 0.00, -0.00, -1.00, 271.4, 506.4)">t</text><text xml:space="preserve" font-family="Times-Bold,Times" font-weight="bold" font-size="41.0" fill="#000000" transform="matrix(1.00, 0.00, -0.00, -1.00, 285.1, 506.4)"> </text><text xml:space="preserve" font-family="Times-Bold,Times" font-weight="bold" font-size="41.0" fill="#000000" transform="matrix(1.00, 0.00, -0.00, -1.00, 295.3, 506.4)">b</text><text xml:space="preserve" font-family="Times-Bold,Times" font-weight="bold" font-size="41.0" fill="#000000" transform="matrix(1.00, 0.00, -0.00, -1.00, 318.1, 506.4)">r</text><text xml:space="preserve" font-family="Times-Bold,Times" font-weight="bold" font-size="41.0" fill="#000000" transform="matrix(1.00, 0.00, -0.00, -1.00, 336.3, 506.4)">i</text><text xml:space="preserve" font-family="Times-Bold,Times" font-weight="bold" font-size="41.0" fill="#000000" transform="matrix(1.00, 0.00, -0.00, -1.00, 347.7, 506.4)">g</text><text xml:space="preserve" font-family="Times-Bold,Times" font-weight="bold" font-size="41.0" fill="#000000" transform="matrix(1.00, 0.00, -0.00, -1.00, 368.2, 506.4)">h</text><text xml:space="preserve" font-family="Times-Bold,Times" font-weight="bold" font-size="41.0" fill="#000000" transform="matrix(1.00, 0.00, -0.00, -1.00, 391.0, 506.4)">t</text><text xml:space="preserve" font-family="Times-Bold,Times" font-weight="bold" font-size="41.0" fill="#000000" transform="matrix(1.00, 0.00, -0.00, -1.00, 404.7, 506.4)">e</text><text xml:space="preserve" font-family="Times-Bold,Times" font-weight="bold" font-size="41.0" fill="#000000" transform="matrix(1.00, 0.00, -0.00, -1.00, 422.8, 506.4)">r</text><text xml:space="preserve" font-family="Times-Roman,Times" font-size="41.0" fill="#000000" transform="matrix(1.00, 0.00, -0.00, -1.00, 441.1, 506.4)">.</text><text xml:space="preserve" font-family="Times-Roman,Times" font-size="41.0" fill="#000000" transform="matrix(1.00, 0.00, -0.00, -1.00, 451.3, 506.4)">	</text><text xml:space="preserve" font-family="Times-Roman,Times" font-size="41.0" fill="#000000" transform="matrix(1.00, 0.00, -0.00, -1.00, 479.3, 506.4)">
</text><text xml:space="preserve" font-family="Times-Roman,Times" font-size="41.0" fill="#000000" transform="matrix(1.00, 0.00, -0.00, -1.00, 479.3, 506.4)"></text><text xml:space="preserve" font-family="Times-Roman,Times" font-size="30.8" fill="#000000" transform="matrix(1.00, 0.00, -0.00, -1.00, 15.2, 420.8)">•</text><text xml:space="preserve" font-family="Times-Bold,Times" font-weight="bold" font-size="41.0" fill="#000000" transform="matrix(1.00, 0.00, -0.00, -1.00, 55.0, 417.4)">H</text><text xml:space="preserve" font-family="Times-Bold,Times" font-weight="bold" font-size="41.0" fill="#000000" transform="matrix(1.00, 0.00, -0.00, -1.00, 86.9, 417.4)">i</text><text xml:space="preserve" font-family="Times-Bold,Times" font-weight="bold" font-size="41.0" fill="#000000" transform="matrix(1.00, 0.00, -0.00, -1.00, 98.3, 417.4)">n</text><text xml:space="preserve" font-family="Times-Bold,Times" font-weight="bold" font-size="41.0" fill="#000000" transform="matrix(1.00, 0.00, -0.00, -1.00, 121.1, 417.4)">t</text><text xml:space="preserve" font-family="Times-Roman,Times" font-size="41.0" fill="#000000" transform="matrix(1.00, 0.00, -0.00, -1.00, 134.8, 417.4)">:</text><text xml:space="preserve" font-family="Times-Roman,Times" font-size="41.0" fill="#000000" transform="matrix(1.00, 0.00, -0.00, -1.00, 146.2, 417.4)"> </text><text xml:space="preserve" font-family="Times-Roman,Times" font-size="41.0" fill="#000000" transform="matrix(1.00, 0.00, -0.00, -1.00, 154.9, 417.4)">Y</text><text xml:space="preserve" font-family="Times-Roman,Times" font-size="41.0" fill="#000000" transform="matrix(1.00, 0.00, -0.00, -1.00, 180.4, 417.4)">o</text><text xml:space="preserve" font-family="Times-Roman,Times" font-size="41.0" fill="#000000" transform="matrix(1.00, 0.00, -0.00, -1.00, 200.9, 417.4)">u</text><text xml:space="preserve" font-family="Times-Roman,Times" font-size="41.0" fill="#000000" transform="matrix(1.00, 0.00, -0.00, -1.00, 221.4, 417.4)"> </text><text xml:space="preserve" font-family="Times-Roman,Times" font-size="41.0" fill="#000000" transform="matrix(1.00, 0.00, -0.00, -1.00, 231.7, 417.4)">m</text><text xml:space="preserve" font-family="Times-Roman,Times" font-size="41.0" fill="#000000" transform="matrix(1.00, 0.00, -0.00, -1.00, 263.6, 417.4)">a</text><text xml:space="preserve" font-family="Times-Roman,Times" font-size="41.0" fill="#000000" transform="matrix(1.00, 0.00, -0.00, -1.00, 281.8, 417.4)">y</text><text xml:space="preserve" font-family="Times-Roman,Times" font-size="41.0" fill="#000000" transform="matrix(1.00, 0.00, -0.00, -1.00, 302.3, 417.4)"> </text><text xml:space="preserve" font-family="Times-Roman,Times" font-size="41.0" fill="#000000" transform="matrix(1.00, 0.00, -0.00, -1.00, 312.5, 417.4)">n</text><text xml:space="preserve" font-family="Times-Roman,Times" font-size="41.0" fill="#000000" transform="matrix(1.00, 0.00, -0.00, -1.00, 333.0, 417.4)">e</text><text xml:space="preserve" font-family="Times-Roman,Times" font-size="41.0" fill="#000000" transform="matrix(1.00, 0.00, -0.00, -1.00, 351.2, 417.4)">e</text><text xml:space="preserve" font-family="Times-Roman,Times" font-size="41.0" fill="#000000" transform="matrix(1.00, 0.00, -0.00, -1.00, 369.4, 417.4)">d</text><text xml:space="preserve" font-family="Times-Roman,Times" font-size="41.0" fill="#000000" transform="matrix(1.00, 0.00, -0.00, -1.00, 389.9, 417.4)"> </text><text xml:space="preserve" font-family="Times-Roman,Times" font-size="41.0" fill="#000000" transform="matrix(1.00, 0.00, -0.00, -1.00, 400.1, 417.4)">t</text><text xml:space="preserve" font-family="Times-Roman,Times" font-size="41.0" fill="#000000" transform="matrix(1.00, 0.00, -0.00, -1.00, 411.5, 417.4)">o</text><text xml:space="preserve" font-family="Times-Roman,Times" font-size="41.0" fill="#000000" transform="matrix(1.00, 0.00, -0.00, -1.00, 432.0, 417.4)"> </text><text xml:space="preserve" font-family="Times-Roman,Times" font-size="41.0" fill="#000000" transform="matrix(1.00, 0.00, -0.00, -1.00, 442.3, 417.4)">k</text><text xml:space="preserve" font-family="Times-Roman,Times" font-size="41.0" fill="#000000" transform="matrix(1.00, 0.00, -0.00, -1.00, 462.8, 417.4)">n</text><text xml:space="preserve" font-family="Times-Roman,Times" font-size="41.0" fill="#000000" transform="matrix(1.00, 0.00, -0.00, -1.00, 483.3, 417.4)">o</text><text xml:space="preserve" font-family="Times-Roman,Times" font-size="41.0" fill="#000000" transform="matrix(1.00, 0.00, -0.00, -1.00, 503.8, 417.4)">w</text><text xml:space="preserve" font-family="Times-Roman,Times" font-size="41.0" fill="#000000" transform="matrix(1.00, 0.00, -0.00, -1.00, 533.4, 417.4)"> </text><text xml:space="preserve" font-family="Times-Roman,Times" font-size="41.0" fill="#000000" transform="matrix(1.00, 0.00, -0.00, -1.00, 55.0, 368.4)">t</text><text xml:space="preserve" font-family="Times-Roman,Times" font-size="41.0" fill="#000000" transform="matrix(1.00, 0.00, -0.00, -1.00, 66.4, 368.4)">h</text><text xml:space="preserve" font-family="Times-Roman,Times" font-size="41.0" fill="#000000" transform="matrix(1.00, 0.00, -0.00, -1.00, 86.9, 368.4)">e</text><text xml:space="preserve" font-family="Times-Roman,Times" font-size="41.0" fill="#000000" transform="matrix(1.00, 0.00, -0.00, -1.00, 105.1, 368.4)"> </text><text xml:space="preserve" font-family="Times-Roman,Times" font-size="41.0" fill="#000000" transform="matrix(1.00, 0.00, -0.00, -1.00, 115.4, 368.4)">p</text><text xml:space="preserve" font-family="Times-Roman,Times" font-size="41.0" fill="#000000" transform="matrix(1.00, 0.00, -0.00, -1.00, 135.9, 368.4)">o</text><text xml:space="preserve" font-family="Times-Roman,Times" font-size="41.0" fill="#000000" transform="matrix(1.00, 0.00, -0.00, -1.00, 156.4, 368.4)">s</text><text xml:space="preserve" font-family="Times-Roman,Times" font-size="41.0" fill="#000000" transform="matrix(1.00, 0.00, -0.00, -1.00, 172.3, 368.4)">i</text><text xml:space="preserve" font-family="Times-Roman,Times" font-size="41.0" fill="#000000" transform="matrix(1.00, 0.00, -0.00, -1.00, 183.7, 368.4)">t</text><text xml:space="preserve" font-family="Times-Roman,Times" font-size="41.0" fill="#000000" transform="matrix(1.00, 0.00, -0.00, -1.00, 195.1, 368.4)">i</text><text xml:space="preserve" font-family="Times-Roman,Times" font-size="41.0" fill="#000000" transform="matrix(1.00, 0.00, -0.00, -1.00, 206.5, 368.4)">o</text><text xml:space="preserve" font-family="Times-Roman,Times" font-size="41.0" fill="#000000" transform="matrix(1.00, 0.00, -0.00, -1.00, 227.0, 368.4)">n</text><text xml:space="preserve" font-family="Times-Roman,Times" font-size="41.0" fill="#000000" transform="matrix(1.00, 0.00, -0.00, -1.00, 247.5, 368.4)"> </text><text xml:space="preserve" font-family="Times-Roman,Times" font-size="41.0" fill="#000000" transform="matrix(1.00, 0.00, -0.00, -1.00, 257.7, 368.4)">o</text><text xml:space="preserve" font-family="Times-Roman,Times" font-size="41.0" fill="#000000" transform="matrix(1.00, 0.00, -0.00, -1.00, 278.2, 368.4)">f</text><text xml:space="preserve" font-family="Times-Roman,Times" font-size="41.0" fill="#000000" transform="matrix(1.00, 0.00, -0.00, -1.00, 291.9, 368.4)"> </text><text xml:space="preserve" font-family="Times-Roman,Times" font-size="41.0" fill="#000000" transform="matrix(1.00, 0.00, -0.00, -1.00, 302.1, 368.4)">C</text><text xml:space="preserve" font-family="Times-Roman,Times" font-size="41.0" fill="#000000" transform="matrix(1.00, 0.00, -0.00, -1.00, 329.5, 368.4)">a</text><text xml:space="preserve" font-family="Times-Roman,Times" font-size="41.0" fill="#000000" transform="matrix(1.00, 0.00, -0.00, -1.00, 347.7, 368.4)">t</text><text xml:space="preserve" font-family="Times-Roman,Times" font-size="41.0" fill="#000000" transform="matrix(1.00, 0.00, -0.00, -1.00, 359.1, 368.4)"> </text><text xml:space="preserve" font-family="Times-Roman,Times" font-size="41.0" fill="#000000" transform="matrix(1.00, 0.00, -0.00, -1.00, 369.3, 368.4)">b</text><text xml:space="preserve" font-family="Times-Roman,Times" font-size="41.0" fill="#000000" transform="matrix(1.00, 0.00, -0.00, -1.00, 389.8, 368.4)">y</text><text xml:space="preserve" font-family="Times-Roman,Times" font-size="41.0" fill="#000000" transform="matrix(1.00, 0.00, -0.00, -1.00, 410.3, 368.4)"> </text><text xml:space="preserve" font-family="Times-Roman,Times" font-size="41.0" fill="#000000" transform="matrix(1.00, 0.00, -0.00, -1.00, 420.6, 368.4)">u</text><text xml:space="preserve" font-family="Times-Roman,Times" font-size="41.0" fill="#000000" transform="matrix(1.00, 0.00, -0.00, -1.00, 441.1, 368.4)">s</text><text xml:space="preserve" font-family="Times-Roman,Times" font-size="41.0" fill="#000000" transform="matrix(1.00, 0.00, -0.00, -1.00, 457.0, 368.4)">i</text><text xml:space="preserve" font-family="Times-Roman,Times" font-size="41.0" fill="#000000" transform="matrix(1.00, 0.00, -0.00, -1.00, 468.4, 368.4)">n</text><text xml:space="preserve" font-family="Times-Roman,Times" font-size="41.0" fill="#000000" transform="matrix(1.00, 0.00, -0.00, -1.00, 488.9, 368.4)">g</text><text xml:space="preserve" font-family="Times-Roman,Times" font-size="41.0" fill="#000000" transform="matrix(1.00, 0.00, -0.00, -1.00, 509.4, 368.4)"> </text><text xml:space="preserve" font-family="Times-Roman,Times" font-size="41.0" fill="#000000" transform="matrix(1.00, 0.00, -0.00, -1.00, 55.0, 319.4)">s</text><text xml:space="preserve" font-family="Times-Roman,Times" font-size="41.0" fill="#000000" transform="matrix(1.00, 0.00, -0.00, -1.00, 71.0, 319.4)">o</text><text xml:space="preserve" font-family="Times-Roman,Times" font-size="41.0" fill="#000000" transform="matrix(1.00, 0.00, -0.00, -1.00, 91.5, 319.4)">m</text><text xml:space="preserve" font-family="Times-Roman,Times" font-size="41.0" fill="#000000" transform="matrix(1.00, 0.00, -0.00, -1.00, 123.4, 319.4)">e</text><text xml:space="preserve" font-family="Times-Roman,Times" font-size="41.0" fill="#000000" transform="matrix(1.00, 0.00, -0.00, -1.00, 141.6, 319.4)"> </text><text xml:space="preserve" font-family="Times-Roman,Times" font-size="41.0" fill="#000000" transform="matrix(1.00, 0.00, -0.00, -1.00, 151.8, 319.4)">b</text><text xml:space="preserve" font-family="Times-Roman,Times" font-size="41.0" fill="#000000" transform="matrix(1.00, 0.00, -0.00, -1.00, 172.3, 319.4)">l</text><text xml:space="preserve" font-family="Times-Roman,Times" font-size="41.0" fill="#000000" transform="matrix(1.00, 0.00, -0.00, -1.00, 183.7, 319.4)">o</text><text xml:space="preserve" font-family="Times-Roman,Times" font-size="41.0" fill="#000000" transform="matrix(1.00, 0.00, -0.00, -1.00, 204.2, 319.4)">c</text><text xml:space="preserve" font-family="Times-Roman,Times" font-size="41.0" fill="#000000" transform="matrix(1.00, 0.00, -0.00, -1.00, 222.4, 319.4)">k</text><text xml:space="preserve" font-family="Times-Roman,Times" font-size="41.0" fill="#000000" transform="matrix(1.00, 0.00, -0.00, -1.00, 242.9, 319.4)">(</text><text xml:space="preserve" font-family="Times-Roman,Times" font-size="41.0" fill="#000000" transform="matrix(1.00, 0.00, -0.00, -1.00, 256.6, 319.4)">s</text><text xml:space="preserve" font-family="Times-Roman,Times" font-size="41.0" fill="#000000" transform="matrix(1.00, 0.00, -0.00, -1.00, 272.5, 319.4)">)</text><text xml:space="preserve" font-family="Times-Roman,Times" font-size="41.0" fill="#000000" transform="matrix(1.00, 0.00, -0.00, -1.00, 286.2, 319.4)"> </text><text xml:space="preserve" font-family="Times-Roman,Times" font-size="41.0" fill="#000000" transform="matrix(1.00, 0.00, -0.00, -1.00, 296.4, 319.4)">i</text><text xml:space="preserve" font-family="Times-Roman,Times" font-size="41.0" fill="#000000" transform="matrix(1.00, 0.00, -0.00, -1.00, 307.8, 319.4)">n</text><text xml:space="preserve" font-family="Times-Roman,Times" font-size="41.0" fill="#000000" transform="matrix(1.00, 0.00, -0.00, -1.00, 328.3, 319.4)"> </text><text xml:space="preserve" font-family="Times-Bold,Times" font-weight="bold" font-size="41.0" fill="#000000" transform="matrix(1.00, 0.00, -0.00, -1.00, 338.6, 319.4)">M</text><text xml:space="preserve" font-family="Times-Bold,Times" font-weight="bold" font-size="41.0" fill="#000000" transform="matrix(1.00, 0.00, -0.00, -1.00, 377.3, 319.4)">o</text><text xml:space="preserve" font-family="Times-Bold,Times" font-weight="bold" font-size="41.0" fill="#000000" transform="matrix(1.00, 0.00, -0.00, -1.00, 397.8, 319.4)">t</text><text xml:space="preserve" font-family="Times-Bold,Times" font-weight="bold" font-size="41.0" fill="#000000" transform="matrix(1.00, 0.00, -0.00, -1.00, 411.4, 319.4)">i</text><text xml:space="preserve" font-family="Times-Bold,Times" font-weight="bold" font-size="41.0" fill="#000000" transform="matrix(1.00, 0.00, -0.00, -1.00, 422.8, 319.4)">o</text><text xml:space="preserve" font-family="Times-Bold,Times" font-weight="bold" font-size="41.0" fill="#000000" transform="matrix(1.00, 0.00, -0.00, -1.00, 443.3, 319.4)">n</text><text xml:space="preserve" font-family="Times-Roman,Times" font-size="41.0" fill="#000000" transform="matrix(1.00, 0.00, -0.00, -1.00, 466.1, 319.4)">.</text><image xlink:href="../../1DC7DFE0-E411-44F4-A29A-F273D24E23A1/assets/9B8C87047730F9ABE7756A862F5EFBF0.png" width="405.00" height="330.00" transform="matrix(1.00, 0.00, -0.00, -1.00, 603.5, 650.4)" opacity="0.50"></image><image xlink:href="../../2F0BF3A0-5DAF-4F00-91F8-7321F9F6E620/assets/7392204786055460C66CC93176233709.png" width="980.00" height="792.00" transform="matrix(0.40, 0.00, -0.00, -0.40, 607.0, 647.6)"></image><image xlink:href="C617272836213D7043D0992EE11AB2F5.png" width="397.00" height="323.00" transform="matrix(1.00, 0.00, -0.00, -1.00, 96.4, 305.4)" opacity="0.70"></image><image xlink:href="51687F7F62C35F4B52B746941931D1B5.png" width="416.00" height="330.00" transform="matrix(0.86, 0.00, -0.00, -0.86, 116.4, 295.4)"></image></g></svg>