<?xml version="1.0" encoding="UTF-8" standalone="no"?><svg xmlns="http://www.w3.org/2000/svg" xmlns:xlink="http://www.w3.org/1999/xlink" clip-rule="evenodd" stroke-miterlimit="10" viewBox="0 0 1024 768"><desc>SVG generated by Keynote</desc><defs></defs><g transform="matrix(1.00, 0.00, -0.00, -1.00, 0.0, 768.0)"><path d="M 0.0 768.0 L 1024.0 768.0 L 1024.0 0.0 L 0.0 0.0 Z M 0.0 768.0 " fill="#FEFFFF"></path><image xlink:href="F0E3845D0C4ECAFB9AE641737A47AC4E.png" width="579.00" height="451.00" transform="matrix(1.00, 0.00, -0.00, -1.00, 218.6, 440.8)" opacity="0.70"></image><image xlink:href="D7764B7D014DDFC4839236AEDADCF792.png" width="220.00" height="168.00" transform="matrix(2.45, 0.00, -0.00, -2.45, 238.6, 430.8)"></image><text xml:space="preserve" font-family="Times-Roman,Times" font-size="43.0" fill="#000000" transform="matrix(1.00, 0.00, -0.00, -1.00, 21.0, 563.8)">•</text><text xml:space="preserve" font-family="Times-Roman,Times" font-size="43.0" fill="#000000" transform="matrix(1.00, 0.00, -0.00, -1.00, 36.1, 563.8)"> </text><text xml:space="preserve" font-family="Times-Roman,Times" font-size="43.0" fill="#000000" transform="matrix(1.00, 0.00, -0.00, -1.00, 46.8, 563.8)">C</text><text xml:space="preserve" font-family="Times-Roman,Times" font-size="43.0" fill="#000000" transform="matrix(1.00, 0.00, -0.00, -1.00, 75.5, 563.8)">r</text><text xml:space="preserve" font-family="Times-Roman,Times" font-size="43.0" fill="#000000" transform="matrix(1.00, 0.00, -0.00, -1.00, 89.8, 563.8)">e</text><text xml:space="preserve" font-family="Times-Roman,Times" font-size="43.0" fill="#000000" transform="matrix(1.00, 0.00, -0.00, -1.00, 108.9, 563.8)">a</text><text xml:space="preserve" font-family="Times-Roman,Times" font-size="43.0" fill="#000000" transform="matrix(1.00, 0.00, -0.00, -1.00, 128.0, 563.8)">t</text><text xml:space="preserve" font-family="Times-Roman,Times" font-size="43.0" fill="#000000" transform="matrix(1.00, 0.00, -0.00, -1.00, 139.9, 563.8)">e</text><text xml:space="preserve" font-family="Times-Roman,Times" font-size="43.0" fill="#000000" transform="matrix(1.00, 0.00, -0.00, -1.00, 159.0, 563.8)"> </text><text xml:space="preserve" font-family="Times-Roman,Times" font-size="43.0" fill="#000000" transform="matrix(1.00, 0.00, -0.00, -1.00, 169.7, 563.8)">a</text><text xml:space="preserve" font-family="Times-Roman,Times" font-size="43.0" fill="#000000" transform="matrix(1.00, 0.00, -0.00, -1.00, 188.8, 563.8)"> </text><text xml:space="preserve" font-family="Times-Roman,Times" font-size="43.0" fill="#000000" transform="matrix(1.00, 0.00, -0.00, -1.00, 199.5, 563.8)">s</text><text xml:space="preserve" font-family="Times-Roman,Times" font-size="43.0" fill="#000000" transform="matrix(1.00, 0.00, -0.00, -1.00, 216.3, 563.8)">c</text><text xml:space="preserve" font-family="Times-Roman,Times" font-size="43.0" fill="#000000" transform="matrix(1.00, 0.00, -0.00, -1.00, 235.4, 563.8)">r</text><text xml:space="preserve" font-family="Times-Roman,Times" font-size="43.0" fill="#000000" transform="matrix(1.00, 0.00, -0.00, -1.00, 249.7, 563.8)">i</text><text xml:space="preserve" font-family="Times-Roman,Times" font-size="43.0" fill="#000000" transform="matrix(1.00, 0.00, -0.00, -1.00, 261.6, 563.8)">p</text><text xml:space="preserve" font-family="Times-Roman,Times" font-size="43.0" fill="#000000" transform="matrix(1.00, 0.00, -0.00, -1.00, 283.1, 563.8)">t</text><text xml:space="preserve" font-family="Times-Roman,Times" font-size="43.0" fill="#000000" transform="matrix(1.00, 0.00, -0.00, -1.00, 295.1, 563.8)"> </text><text xml:space="preserve" font-family="Times-Roman,Times" font-size="43.0" fill="#000000" transform="matrix(1.00, 0.00, -0.00, -1.00, 305.8, 563.8)">t</text><text xml:space="preserve" font-family="Times-Roman,Times" font-size="43.0" fill="#000000" transform="matrix(1.00, 0.00, -0.00, -1.00, 317.8, 563.8)">h</text><text xml:space="preserve" font-family="Times-Roman,Times" font-size="43.0" fill="#000000" transform="matrix(1.00, 0.00, -0.00, -1.00, 339.3, 563.8)">a</text><text xml:space="preserve" font-family="Times-Roman,Times" font-size="43.0" fill="#000000" transform="matrix(1.00, 0.00, -0.00, -1.00, 358.3, 563.8)">t</text><text xml:space="preserve" font-family="Times-Roman,Times" font-size="43.0" fill="#000000" transform="matrix(1.00, 0.00, -0.00, -1.00, 370.3, 563.8)"> </text><text xml:space="preserve" font-family="Times-Roman,Times" font-size="43.0" fill="#000000" transform="matrix(1.00, 0.00, -0.00, -1.00, 381.0, 563.8)">t</text><text xml:space="preserve" font-family="Times-Roman,Times" font-size="43.0" fill="#000000" transform="matrix(1.00, 0.00, -0.00, -1.00, 393.0, 563.8)">u</text><text xml:space="preserve" font-family="Times-Roman,Times" font-size="43.0" fill="#000000" transform="matrix(1.00, 0.00, -0.00, -1.00, 414.5, 563.8)">r</text><text xml:space="preserve" font-family="Times-Roman,Times" font-size="43.0" fill="#000000" transform="matrix(1.00, 0.00, -0.00, -1.00, 428.8, 563.8)">n</text><text xml:space="preserve" font-family="Times-Roman,Times" font-size="43.0" fill="#000000" transform="matrix(1.00, 0.00, -0.00, -1.00, 450.3, 563.8)">s</text><text xml:space="preserve" font-family="Times-Roman,Times" font-size="43.0" fill="#000000" transform="matrix(1.00, 0.00, -0.00, -1.00, 467.0, 563.8)"> </text><text xml:space="preserve" font-family="Times-Roman,Times" font-size="43.0" fill="#000000" transform="matrix(1.00, 0.00, -0.00, -1.00, 477.8, 563.8)">o</text><text xml:space="preserve" font-family="Times-Roman,Times" font-size="43.0" fill="#000000" transform="matrix(1.00, 0.00, -0.00, -1.00, 499.3, 563.8)">n</text><text xml:space="preserve" font-family="Times-Roman,Times" font-size="43.0" fill="#000000" transform="matrix(1.00, 0.00, -0.00, -1.00, 520.8, 563.8)"> </text><text xml:space="preserve" font-family="Times-Roman,Times" font-size="43.0" fill="#000000" transform="matrix(1.00, 0.00, -0.00, -1.00, 531.5, 563.8)">L</text><text xml:space="preserve" font-family="Times-Roman,Times" font-size="43.0" fill="#000000" transform="matrix(1.00, 0.00, -0.00, -1.00, 557.8, 563.8)">E</text><text xml:space="preserve" font-family="Times-Roman,Times" font-size="43.0" fill="#000000" transform="matrix(1.00, 0.00, -0.00, -1.00, 584.0, 563.8)">D</text><text xml:space="preserve" font-family="Times-Roman,Times" font-size="43.0" fill="#000000" transform="matrix(1.00, 0.00, -0.00, -1.00, 615.1, 563.8)"> </text><text xml:space="preserve" font-family="Times-Roman,Times" font-size="43.0" fill="#000000" transform="matrix(1.00, 0.00, -0.00, -1.00, 625.8, 563.8)">l</text><text xml:space="preserve" font-family="Times-Roman,Times" font-size="43.0" fill="#000000" transform="matrix(1.00, 0.00, -0.00, -1.00, 637.8, 563.8)">i</text><text xml:space="preserve" font-family="Times-Roman,Times" font-size="43.0" fill="#000000" transform="matrix(1.00, 0.00, -0.00, -1.00, 649.7, 563.8)">g</text><text xml:space="preserve" font-family="Times-Roman,Times" font-size="43.0" fill="#000000" transform="matrix(1.00, 0.00, -0.00, -1.00, 671.2, 563.8)">h</text><text xml:space="preserve" font-family="Times-Roman,Times" font-size="43.0" fill="#000000" transform="matrix(1.00, 0.00, -0.00, -1.00, 692.7, 563.8)">t</text><text xml:space="preserve" font-family="Times-Roman,Times" font-size="43.0" fill="#000000" transform="matrix(1.00, 0.00, -0.00, -1.00, 704.7, 563.8)"> </text><text xml:space="preserve" font-family="LucidaGrande,Lucida Grande" font-size="43.0" fill="#000000" transform="matrix(1.00, 0.00, -0.00, -1.00, 715.5, 563.8)"> </text><text xml:space="preserve" font-family="Times-Roman,Times" font-size="43.0" fill="#000000" transform="matrix(1.00, 0.00, -0.00, -1.00, 21.0, 511.8)"> </text><text xml:space="preserve" font-family="Times-Roman,Times" font-size="43.0" fill="#000000" transform="matrix(1.00, 0.00, -0.00, -1.00, 31.8, 511.8)"> </text><text xml:space="preserve" font-family="Times-Roman,Times" font-size="43.0" fill="#000000" transform="matrix(1.00, 0.00, -0.00, -1.00, 42.5, 511.8)"> </text><text xml:space="preserve" font-family="Times-Roman,Times" font-size="43.0" fill="#000000" transform="matrix(1.00, 0.00, -0.00, -1.00, 53.2, 511.8)">w</text><text xml:space="preserve" font-family="Times-Roman,Times" font-size="43.0" fill="#000000" transform="matrix(1.00, 0.00, -0.00, -1.00, 84.3, 511.8)">h</text><text xml:space="preserve" font-family="Times-Roman,Times" font-size="43.0" fill="#000000" transform="matrix(1.00, 0.00, -0.00, -1.00, 105.8, 511.8)">i</text><text xml:space="preserve" font-family="Times-Roman,Times" font-size="43.0" fill="#000000" transform="matrix(1.00, 0.00, -0.00, -1.00, 117.8, 511.8)">l</text><text xml:space="preserve" font-family="Times-Roman,Times" font-size="43.0" fill="#000000" transform="matrix(1.00, 0.00, -0.00, -1.00, 129.7, 511.8)">e</text><text xml:space="preserve" font-family="Times-Roman,Times" font-size="43.0" fill="#000000" transform="matrix(1.00, 0.00, -0.00, -1.00, 148.8, 511.8)"> </text><text xml:space="preserve" font-family="Times-Roman,Times" font-size="43.0" fill="#000000" transform="matrix(1.00, 0.00, -0.00, -1.00, 159.5, 511.8)">p</text><text xml:space="preserve" font-family="Times-Roman,Times" font-size="43.0" fill="#000000" transform="matrix(1.00, 0.00, -0.00, -1.00, 181.0, 511.8)">r</text><text xml:space="preserve" font-family="Times-Roman,Times" font-size="43.0" fill="#000000" transform="matrix(1.00, 0.00, -0.00, -1.00, 195.3, 511.8)">e</text><text xml:space="preserve" font-family="Times-Roman,Times" font-size="43.0" fill="#000000" transform="matrix(1.00, 0.00, -0.00, -1.00, 214.4, 511.8)">s</text><text xml:space="preserve" font-family="Times-Roman,Times" font-size="43.0" fill="#000000" transform="matrix(1.00, 0.00, -0.00, -1.00, 231.2, 511.8)">s</text><text xml:space="preserve" font-family="Times-Roman,Times" font-size="43.0" fill="#000000" transform="matrix(1.00, 0.00, -0.00, -1.00, 247.9, 511.8)">i</text><text xml:space="preserve" font-family="Times-Roman,Times" font-size="43.0" fill="#000000" transform="matrix(1.00, 0.00, -0.00, -1.00, 259.8, 511.8)">n</text><text xml:space="preserve" font-family="Times-Roman,Times" font-size="43.0" fill="#000000" transform="matrix(1.00, 0.00, -0.00, -1.00, 281.3, 511.8)">g</text><text xml:space="preserve" font-family="Times-Roman,Times" font-size="43.0" fill="#000000" transform="matrix(1.00, 0.00, -0.00, -1.00, 302.8, 511.8)"> </text><text xml:space="preserve" font-family="Times-Roman,Times" font-size="43.0" fill="#000000" transform="matrix(1.00, 0.00, -0.00, -1.00, 313.6, 511.8)">‘</text><text xml:space="preserve" font-family="Times-Roman,Times" font-size="43.0" fill="#000000" transform="matrix(1.00, 0.00, -0.00, -1.00, 327.9, 511.8)">S</text><text xml:space="preserve" font-family="Times-Roman,Times" font-size="43.0" fill="#000000" transform="matrix(1.00, 0.00, -0.00, -1.00, 351.8, 511.8)">p</text><text xml:space="preserve" font-family="Times-Roman,Times" font-size="43.0" fill="#000000" transform="matrix(1.00, 0.00, -0.00, -1.00, 373.3, 511.8)">a</text><text xml:space="preserve" font-family="Times-Roman,Times" font-size="43.0" fill="#000000" transform="matrix(1.00, 0.00, -0.00, -1.00, 392.4, 511.8)">c</text><text xml:space="preserve" font-family="Times-Roman,Times" font-size="43.0" fill="#000000" transform="matrix(1.00, 0.00, -0.00, -1.00, 411.5, 511.8)">e</text><text xml:space="preserve" font-family="Times-Roman,Times" font-size="43.0" fill="#000000" transform="matrix(1.00, 0.00, -0.00, -1.00, 430.6, 511.8)">’</text><text xml:space="preserve" font-family="Times-Roman,Times" font-size="43.0" fill="#000000" transform="matrix(1.00, 0.00, -0.00, -1.00, 441.7, 511.8)"> </text><text xml:space="preserve" font-family="Times-Roman,Times" font-size="43.0" fill="#000000" transform="matrix(1.00, 0.00, -0.00, -1.00, 452.5, 511.8)">o</text><text xml:space="preserve" font-family="Times-Roman,Times" font-size="43.0" fill="#000000" transform="matrix(1.00, 0.00, -0.00, -1.00, 474.0, 511.8)">n</text><text xml:space="preserve" font-family="Times-Roman,Times" font-size="43.0" fill="#000000" transform="matrix(1.00, 0.00, -0.00, -1.00, 495.5, 511.8)"> </text><text xml:space="preserve" font-family="Times-Roman,Times" font-size="43.0" fill="#000000" transform="matrix(1.00, 0.00, -0.00, -1.00, 506.2, 511.8)">y</text><text xml:space="preserve" font-family="Times-Roman,Times" font-size="43.0" fill="#000000" transform="matrix(1.00, 0.00, -0.00, -1.00, 527.7, 511.8)">o</text><text xml:space="preserve" font-family="Times-Roman,Times" font-size="43.0" fill="#000000" transform="matrix(1.00, 0.00, -0.00, -1.00, 549.2, 511.8)">u</text><text xml:space="preserve" font-family="Times-Roman,Times" font-size="43.0" fill="#000000" transform="matrix(1.00, 0.00, -0.00, -1.00, 570.7, 511.8)">r</text><text xml:space="preserve" font-family="Times-Roman,Times" font-size="43.0" fill="#000000" transform="matrix(1.00, 0.00, -0.00, -1.00, 585.0, 511.8)"> </text><text xml:space="preserve" font-family="Times-Roman,Times" font-size="43.0" fill="#000000" transform="matrix(1.00, 0.00, -0.00, -1.00, 595.8, 511.8)">k</text><text xml:space="preserve" font-family="Times-Roman,Times" font-size="43.0" fill="#000000" transform="matrix(1.00, 0.00, -0.00, -1.00, 617.3, 511.8)">e</text><text xml:space="preserve" font-family="Times-Roman,Times" font-size="43.0" fill="#000000" transform="matrix(1.00, 0.00, -0.00, -1.00, 636.4, 511.8)">y</text><text xml:space="preserve" font-family="Times-Roman,Times" font-size="43.0" fill="#000000" transform="matrix(1.00, 0.00, -0.00, -1.00, 657.9, 511.8)">b</text><text xml:space="preserve" font-family="Times-Roman,Times" font-size="43.0" fill="#000000" transform="matrix(1.00, 0.00, -0.00, -1.00, 679.4, 511.8)">o</text><text xml:space="preserve" font-family="Times-Roman,Times" font-size="43.0" fill="#000000" transform="matrix(1.00, 0.00, -0.00, -1.00, 700.9, 511.8)">a</text><text xml:space="preserve" font-family="Times-Roman,Times" font-size="43.0" fill="#000000" transform="matrix(1.00, 0.00, -0.00, -1.00, 719.9, 511.8)">r</text><text xml:space="preserve" font-family="Times-Roman,Times" font-size="43.0" fill="#000000" transform="matrix(1.00, 0.00, -0.00, -1.00, 734.3, 511.8)">d</text><text xml:space="preserve" font-family="Times-Roman,Times" font-size="43.0" fill="#000000" transform="matrix(1.00, 0.00, -0.00, -1.00, 755.8, 511.8)">.</text><text xml:space="preserve" font-family="Times-Roman,Times" font-size="43.0" fill="#000000" transform="matrix(1.00, 0.00, -0.00, -1.00, 766.5, 511.8)">	</text><text xml:space="preserve" font-family="Times-Roman,Times" font-size="43.0" fill="#000000" transform="matrix(1.00, 0.00, -0.00, -1.00, 794.5, 511.8)">
</text><text xml:space="preserve" font-family="Times-Roman,Times" font-size="43.0" fill="#000000" transform="matrix(1.00, 0.00, -0.00, -1.00, 794.5, 511.8)"></text><text xml:space="preserve" font-family="Times-Roman,Times" font-size="43.0" fill="#000000" transform="matrix(1.00, 0.00, -0.00, -1.00, 21.0, 447.8)">•</text><text xml:space="preserve" font-family="Times-Roman,Times" font-size="43.0" fill="#000000" transform="matrix(1.00, 0.00, -0.00, -1.00, 36.1, 447.8)"> </text><text xml:space="preserve" font-family="Times-Roman,Times" font-size="43.0" fill="#000000" transform="matrix(1.00, 0.00, -0.00, -1.00, 46.8, 447.8)">I</text><text xml:space="preserve" font-family="Times-Roman,Times" font-size="43.0" fill="#000000" transform="matrix(1.00, 0.00, -0.00, -1.00, 61.1, 447.8)">f</text><text xml:space="preserve" font-family="Times-Roman,Times" font-size="43.0" fill="#000000" transform="matrix(1.00, 0.00, -0.00, -1.00, 75.4, 447.8)"> </text><text xml:space="preserve" font-family="Times-Roman,Times" font-size="43.0" fill="#000000" transform="matrix(1.00, 0.00, -0.00, -1.00, 86.2, 447.8)">n</text><text xml:space="preserve" font-family="Times-Roman,Times" font-size="43.0" fill="#000000" transform="matrix(1.00, 0.00, -0.00, -1.00, 107.7, 447.8)">o</text><text xml:space="preserve" font-family="Times-Roman,Times" font-size="43.0" fill="#000000" transform="matrix(1.00, 0.00, -0.00, -1.00, 129.2, 447.8)">t</text><text xml:space="preserve" font-family="Times-Roman,Times" font-size="43.0" fill="#000000" transform="matrix(1.00, 0.00, -0.00, -1.00, 141.1, 447.8)"> </text><text xml:space="preserve" font-family="Times-Roman,Times" font-size="43.0" fill="#000000" transform="matrix(1.00, 0.00, -0.00, -1.00, 151.9, 447.8)">p</text><text xml:space="preserve" font-family="Times-Roman,Times" font-size="43.0" fill="#000000" transform="matrix(1.00, 0.00, -0.00, -1.00, 173.4, 447.8)">r</text><text xml:space="preserve" font-family="Times-Roman,Times" font-size="43.0" fill="#000000" transform="matrix(1.00, 0.00, -0.00, -1.00, 187.7, 447.8)">e</text><text xml:space="preserve" font-family="Times-Roman,Times" font-size="43.0" fill="#000000" transform="matrix(1.00, 0.00, -0.00, -1.00, 206.8, 447.8)">s</text><text xml:space="preserve" font-family="Times-Roman,Times" font-size="43.0" fill="#000000" transform="matrix(1.00, 0.00, -0.00, -1.00, 223.5, 447.8)">s</text><text xml:space="preserve" font-family="Times-Roman,Times" font-size="43.0" fill="#000000" transform="matrix(1.00, 0.00, -0.00, -1.00, 240.3, 447.8)">i</text><text xml:space="preserve" font-family="Times-Roman,Times" font-size="43.0" fill="#000000" transform="matrix(1.00, 0.00, -0.00, -1.00, 252.2, 447.8)">n</text><text xml:space="preserve" font-family="Times-Roman,Times" font-size="43.0" fill="#000000" transform="matrix(1.00, 0.00, -0.00, -1.00, 273.7, 447.8)">g</text><text xml:space="preserve" font-family="Times-Roman,Times" font-size="43.0" fill="#000000" transform="matrix(1.00, 0.00, -0.00, -1.00, 295.2, 447.8)"> </text><text xml:space="preserve" font-family="Times-Roman,Times" font-size="43.0" fill="#000000" transform="matrix(1.00, 0.00, -0.00, -1.00, 306.0, 447.8)">‘</text><text xml:space="preserve" font-family="Times-Roman,Times" font-size="43.0" fill="#000000" transform="matrix(1.00, 0.00, -0.00, -1.00, 320.3, 447.8)">S</text><text xml:space="preserve" font-family="Times-Roman,Times" font-size="43.0" fill="#000000" transform="matrix(1.00, 0.00, -0.00, -1.00, 344.2, 447.8)">p</text><text xml:space="preserve" font-family="Times-Roman,Times" font-size="43.0" fill="#000000" transform="matrix(1.00, 0.00, -0.00, -1.00, 365.7, 447.8)">a</text><text xml:space="preserve" font-family="Times-Roman,Times" font-size="43.0" fill="#000000" transform="matrix(1.00, 0.00, -0.00, -1.00, 384.8, 447.8)">c</text><text xml:space="preserve" font-family="Times-Roman,Times" font-size="43.0" fill="#000000" transform="matrix(1.00, 0.00, -0.00, -1.00, 403.8, 447.8)">e</text><text xml:space="preserve" font-family="Times-Roman,Times" font-size="43.0" fill="#000000" transform="matrix(1.00, 0.00, -0.00, -1.00, 422.9, 447.8)">’</text><text xml:space="preserve" font-family="Times-Roman,Times" font-size="43.0" fill="#000000" transform="matrix(1.00, 0.00, -0.00, -1.00, 437.2, 447.8)">,</text><text xml:space="preserve" font-family="Times-Roman,Times" font-size="43.0" fill="#000000" transform="matrix(1.00, 0.00, -0.00, -1.00, 448.0, 447.8)"> </text><text xml:space="preserve" font-family="Times-Roman,Times" font-size="43.0" fill="#000000" transform="matrix(1.00, 0.00, -0.00, -1.00, 458.7, 447.8)">L</text><text xml:space="preserve" font-family="Times-Roman,Times" font-size="43.0" fill="#000000" transform="matrix(1.00, 0.00, -0.00, -1.00, 485.0, 447.8)">E</text><text xml:space="preserve" font-family="Times-Roman,Times" font-size="43.0" fill="#000000" transform="matrix(1.00, 0.00, -0.00, -1.00, 511.3, 447.8)">D</text><text xml:space="preserve" font-family="Times-Roman,Times" font-size="43.0" fill="#000000" transform="matrix(1.00, 0.00, -0.00, -1.00, 542.3, 447.8)"> </text><text xml:space="preserve" font-family="Times-Roman,Times" font-size="43.0" fill="#000000" transform="matrix(1.00, 0.00, -0.00, -1.00, 553.1, 447.8)">l</text><text xml:space="preserve" font-family="Times-Roman,Times" font-size="43.0" fill="#000000" transform="matrix(1.00, 0.00, -0.00, -1.00, 565.0, 447.8)">i</text><text xml:space="preserve" font-family="Times-Roman,Times" font-size="43.0" fill="#000000" transform="matrix(1.00, 0.00, -0.00, -1.00, 576.9, 447.8)">g</text><text xml:space="preserve" font-family="Times-Roman,Times" font-size="43.0" fill="#000000" transform="matrix(1.00, 0.00, -0.00, -1.00, 598.4, 447.8)">h</text><text xml:space="preserve" font-family="Times-Roman,Times" font-size="43.0" fill="#000000" transform="matrix(1.00, 0.00, -0.00, -1.00, 619.9, 447.8)">t</text><text xml:space="preserve" font-family="Times-Roman,Times" font-size="43.0" fill="#000000" transform="matrix(1.00, 0.00, -0.00, -1.00, 631.9, 447.8)"> </text><text xml:space="preserve" font-family="Times-Roman,Times" font-size="43.0" fill="#000000" transform="matrix(1.00, 0.00, -0.00, -1.00, 642.6, 447.8)">s</text><text xml:space="preserve" font-family="Times-Roman,Times" font-size="43.0" fill="#000000" transform="matrix(1.00, 0.00, -0.00, -1.00, 659.4, 447.8)">h</text><text xml:space="preserve" font-family="Times-Roman,Times" font-size="43.0" fill="#000000" transform="matrix(1.00, 0.00, -0.00, -1.00, 680.9, 447.8)">o</text><text xml:space="preserve" font-family="Times-Roman,Times" font-size="43.0" fill="#000000" transform="matrix(1.00, 0.00, -0.00, -1.00, 702.4, 447.8)">u</text><text xml:space="preserve" font-family="Times-Roman,Times" font-size="43.0" fill="#000000" transform="matrix(1.00, 0.00, -0.00, -1.00, 723.9, 447.8)">l</text><text xml:space="preserve" font-family="Times-Roman,Times" font-size="43.0" fill="#000000" transform="matrix(1.00, 0.00, -0.00, -1.00, 735.8, 447.8)">d</text><text xml:space="preserve" font-family="Times-Roman,Times" font-size="43.0" fill="#000000" transform="matrix(1.00, 0.00, -0.00, -1.00, 757.3, 447.8)"> </text><text xml:space="preserve" font-family="Times-Roman,Times" font-size="43.0" fill="#000000" transform="matrix(1.00, 0.00, -0.00, -1.00, 768.1, 447.8)">b</text><text xml:space="preserve" font-family="Times-Roman,Times" font-size="43.0" fill="#000000" transform="matrix(1.00, 0.00, -0.00, -1.00, 789.6, 447.8)">e</text><text xml:space="preserve" font-family="Times-Roman,Times" font-size="43.0" fill="#000000" transform="matrix(1.00, 0.00, -0.00, -1.00, 808.6, 447.8)"> </text><text xml:space="preserve" font-family="Times-Roman,Times" font-size="43.0" fill="#000000" transform="matrix(1.00, 0.00, -0.00, -1.00, 819.4, 447.8)">o</text><text xml:space="preserve" font-family="Times-Roman,Times" font-size="43.0" fill="#000000" transform="matrix(1.00, 0.00, -0.00, -1.00, 840.9, 447.8)">f</text><text xml:space="preserve" font-family="Times-Roman,Times" font-size="43.0" fill="#000000" transform="matrix(1.00, 0.00, -0.00, -1.00, 854.5, 447.8)">f</text><text xml:space="preserve" font-family="Times-Roman,Times" font-size="43.0" fill="#000000" transform="matrix(1.00, 0.00, -0.00, -1.00, 868.8, 447.8)">.</text><text xml:space="preserve" font-family="Times-Bold,Times" font-weight="bold" font-size="73.1" fill="#000000" transform="matrix(1.00, 0.00, -0.00, -1.00, 35.8, 664.2)">H</text><text xml:space="preserve" font-family="Times-Bold,Times" font-weight="bold" font-size="73.1" fill="#000000" transform="matrix(1.00, 0.00, -0.00, -1.00, 92.6, 664.2)">a</text><text xml:space="preserve" font-family="Times-Bold,Times" font-weight="bold" font-size="73.1" fill="#000000" transform="matrix(1.00, 0.00, -0.00, -1.00, 129.2, 664.2)">n</text><text xml:space="preserve" font-family="Times-Bold,Times" font-weight="bold" font-size="73.1" fill="#000000" transform="matrix(1.00, 0.00, -0.00, -1.00, 169.8, 664.2)">d</text><text xml:space="preserve" font-family="Times-Bold,Times" font-weight="bold" font-size="73.1" fill="#000000" transform="matrix(1.00, 0.00, -0.00, -1.00, 210.5, 664.2)">s</text><text xml:space="preserve" font-family="Times-Bold,Times" font-weight="bold" font-size="73.1" fill="#000000" transform="matrix(1.00, 0.00, -0.00, -1.00, 239.0, 664.2)">-</text><text xml:space="preserve" font-family="Times-Bold,Times" font-weight="bold" font-size="73.1" fill="#000000" transform="matrix(1.00, 0.00, -0.00, -1.00, 263.3, 664.2)">o</text><text xml:space="preserve" font-family="Times-Bold,Times" font-weight="bold" font-size="73.1" fill="#000000" transform="matrix(1.00, 0.00, -0.00, -1.00, 299.8, 664.2)">n</text><text xml:space="preserve" font-family="Times-Bold,Times" font-weight="bold" font-size="73.1" fill="#000000" transform="matrix(1.00, 0.00, -0.00, -1.00, 340.5, 664.2)">:</text><text xml:space="preserve" font-family="Times-Bold,Times" font-weight="bold" font-size="73.1" fill="#000000" transform="matrix(1.00, 0.00, -0.00, -1.00, 364.8, 664.2)"> </text><text xml:space="preserve" font-family="Times-Bold,Times" font-weight="bold" font-size="73.1" fill="#000000" transform="matrix(1.00, 0.00, -0.00, -1.00, 383.1, 664.2)">L</text><text xml:space="preserve" font-family="Times-Bold,Times" font-weight="bold" font-size="73.1" fill="#000000" transform="matrix(1.00, 0.00, -0.00, -1.00, 431.8, 664.2)">i</text><text xml:space="preserve" font-family="Times-Bold,Times" font-weight="bold" font-size="73.1" fill="#000000" transform="matrix(1.00, 0.00, -0.00, -1.00, 452.1, 664.2)">g</text><text xml:space="preserve" font-family="Times-Bold,Times" font-weight="bold" font-size="73.1" fill="#000000" transform="matrix(1.00, 0.00, -0.00, -1.00, 488.7, 664.2)">h</text><text xml:space="preserve" font-family="Times-Bold,Times" font-weight="bold" font-size="73.1" fill="#000000" transform="matrix(1.00, 0.00, -0.00, -1.00, 529.3, 664.2)">t</text><text xml:space="preserve" font-family="Times-Bold,Times" font-weight="bold" font-size="73.1" fill="#000000" transform="matrix(1.00, 0.00, -0.00, -1.00, 553.7, 664.2)">n</text><text xml:space="preserve" font-family="Times-Bold,Times" font-weight="bold" font-size="73.1" fill="#000000" transform="matrix(1.00, 0.00, -0.00, -1.00, 594.3, 664.2)">i</text><text xml:space="preserve" font-family="Times-Bold,Times" font-weight="bold" font-size="73.1" fill="#000000" transform="matrix(1.00, 0.00, -0.00, -1.00, 614.6, 664.2)">n</text><text xml:space="preserve" font-family="Times-Bold,Times" font-weight="bold" font-size="73.1" fill="#000000" transform="matrix(1.00, 0.00, -0.00, -1.00, 655.3, 664.2)">g</text><text xml:space="preserve" font-family="Times-Bold,Times" font-weight="bold" font-size="73.1" fill="#000000" transform="matrix(1.00, 0.00, -0.00, -1.00, 691.8, 664.2)"> </text><text xml:space="preserve" font-family="Times-Bold,Times" font-weight="bold" font-size="73.1" fill="#000000" transform="matrix(1.00, 0.00, -0.00, -1.00, 710.1, 664.2)">b</text><text xml:space="preserve" font-family="Times-Bold,Times" font-weight="bold" font-size="73.1" fill="#000000" transform="matrix(1.00, 0.00, -0.00, -1.00, 750.7, 664.2)">y</text><text xml:space="preserve" font-family="Times-Bold,Times" font-weight="bold" font-size="73.1" fill="#000000" transform="matrix(1.00, 0.00, -0.00, -1.00, 787.3, 664.2)"> </text><text xml:space="preserve" font-family="Times-Bold,Times" font-weight="bold" font-size="73.1" fill="#000000" transform="matrix(1.00, 0.00, -0.00, -1.00, 805.6, 664.2)">S</text><text xml:space="preserve" font-family="Times-Bold,Times" font-weight="bold" font-size="73.1" fill="#000000" transform="matrix(1.00, 0.00, -0.00, -1.00, 846.2, 664.2)">p</text><text xml:space="preserve" font-family="Times-Bold,Times" font-weight="bold" font-size="73.1" fill="#000000" transform="matrix(1.00, 0.00, -0.00, -1.00, 886.9, 664.2)">a</text><text xml:space="preserve" font-family="Times-Bold,Times" font-weight="bold" font-size="73.1" fill="#000000" transform="matrix(1.00, 0.00, -0.00, -1.00, 923.4, 664.2)">c</text><text xml:space="preserve" font-family="Times-Bold,Times" font-weight="bold" font-size="73.1" fill="#000000" transform="matrix(1.00, 0.00, -0.00, -1.00, 955.8, 664.2)">e</text></g></svg>