<?xml version="1.0" encoding="UTF-8" standalone="no"?><svg xmlns="http://www.w3.org/2000/svg" xmlns:xlink="http://www.w3.org/1999/xlink" clip-rule="evenodd" stroke-miterlimit="10" viewBox="0 0 1003 51"><desc>SVG generated by Keynote</desc><defs></defs><g transform="matrix(1.00, 0.00, -0.00, -1.00, 0.0, 51.0)"><text xml:space="preserve" font-family="Times-Bold,Times" font-weight="bold" font-size="52.2" fill="#000000" transform="matrix(1.00, 0.00, -0.00, -1.00, 1.0, 12.1)">H</text><text xml:space="preserve" font-family="Times-Bold,Times" font-weight="bold" font-size="52.2" fill="#000000" transform="matrix(1.00, 0.00, -0.00, -1.00, 41.6, 12.1)">a</text><text xml:space="preserve" font-family="Times-Bold,Times" font-weight="bold" font-size="52.2" fill="#000000" transform="matrix(1.00, 0.00, -0.00, -1.00, 67.7, 12.1)">n</text><text xml:space="preserve" font-family="Times-Bold,Times" font-weight="bold" font-size="52.2" fill="#000000" transform="matrix(1.00, 0.00, -0.00, -1.00, 96.7, 12.1)">d</text><text xml:space="preserve" font-family="Times-Bold,Times" font-weight="bold" font-size="52.2" fill="#000000" transform="matrix(1.00, 0.00, -0.00, -1.00, 125.7, 12.1)">s</text><text xml:space="preserve" font-family="Times-Bold,Times" font-weight="bold" font-size="52.2" fill="#000000" transform="matrix(1.00, 0.00, -0.00, -1.00, 146.1, 12.1)">-</text><text xml:space="preserve" font-family="Times-Bold,Times" font-weight="bold" font-size="52.2" fill="#000000" transform="matrix(1.00, 0.00, -0.00, -1.00, 163.4, 12.1)">o</text><text xml:space="preserve" font-family="Times-Bold,Times" font-weight="bold" font-size="52.2" fill="#000000" transform="matrix(1.00, 0.00, -0.00, -1.00, 189.5, 12.1)">n</text><text xml:space="preserve" font-family="Times-Bold,Times" font-weight="bold" font-size="52.2" fill="#000000" transform="matrix(1.00, 0.00, -0.00, -1.00, 218.6, 12.1)">:</text><text xml:space="preserve" font-family="Times-Bold,Times" font-weight="bold" font-size="52.2" fill="#000000" transform="matrix(1.00, 0.00, -0.00, -1.00, 236.0, 12.1)"> </text><text xml:space="preserve" font-family="Times-Bold,Times" font-weight="bold" font-size="52.2" fill="#000000" transform="matrix(1.00, 0.00, -0.00, -1.00, 249.0, 12.1)">C</text><text xml:space="preserve" font-family="Times-Bold,Times" font-weight="bold" font-size="52.2" fill="#000000" transform="matrix(1.00, 0.00, -0.00, -1.00, 286.7, 12.1)">a</text><text xml:space="preserve" font-family="Times-Bold,Times" font-weight="bold" font-size="52.2" fill="#000000" transform="matrix(1.00, 0.00, -0.00, -1.00, 312.8, 12.1)">t</text><text xml:space="preserve" font-family="Times-Bold,Times" font-weight="bold" font-size="52.2" fill="#000000" transform="matrix(1.00, 0.00, -0.00, -1.00, 330.2, 12.1)"> </text><text xml:space="preserve" font-family="Times-Bold,Times" font-weight="bold" font-size="52.2" fill="#000000" transform="matrix(1.00, 0.00, -0.00, -1.00, 343.3, 12.1)">c</text><text xml:space="preserve" font-family="Times-Bold,Times" font-weight="bold" font-size="52.2" fill="#000000" transform="matrix(1.00, 0.00, -0.00, -1.00, 366.4, 12.1)">l</text><text xml:space="preserve" font-family="Times-Bold,Times" font-weight="bold" font-size="52.2" fill="#000000" transform="matrix(1.00, 0.00, -0.00, -1.00, 380.9, 12.1)">o</text><text xml:space="preserve" font-family="Times-Bold,Times" font-weight="bold" font-size="52.2" fill="#000000" transform="matrix(1.00, 0.00, -0.00, -1.00, 407.0, 12.1)">s</text><text xml:space="preserve" font-family="Times-Bold,Times" font-weight="bold" font-size="52.2" fill="#000000" transform="matrix(1.00, 0.00, -0.00, -1.00, 427.3, 12.1)">e</text><text xml:space="preserve" font-family="Times-Bold,Times" font-weight="bold" font-size="52.2" fill="#000000" transform="matrix(1.00, 0.00, -0.00, -1.00, 450.5, 12.1)">r</text><text xml:space="preserve" font-family="Times-Bold,Times" font-weight="bold" font-size="52.2" fill="#000000" transform="matrix(1.00, 0.00, -0.00, -1.00, 472.7, 12.1)"> </text><text xml:space="preserve" font-family="Times-Bold,Times" font-weight="bold" font-size="52.2" fill="#000000" transform="matrix(1.00, 0.00, -0.00, -1.00, 485.8, 12.1)">t</text><text xml:space="preserve" font-family="Times-Bold,Times" font-weight="bold" font-size="52.2" fill="#000000" transform="matrix(1.00, 0.00, -0.00, -1.00, 503.2, 12.1)">o</text><text xml:space="preserve" font-family="Times-Bold,Times" font-weight="bold" font-size="52.2" fill="#000000" transform="matrix(1.00, 0.00, -0.00, -1.00, 529.3, 12.1)"> </text><text xml:space="preserve" font-family="Times-Bold,Times" font-weight="bold" font-size="52.2" fill="#000000" transform="matrix(1.00, 0.00, -0.00, -1.00, 542.3, 12.1)">E</text><text xml:space="preserve" font-family="Times-Bold,Times" font-weight="bold" font-size="52.2" fill="#000000" transform="matrix(1.00, 0.00, -0.00, -1.00, 577.1, 12.1)">d</text><text xml:space="preserve" font-family="Times-Bold,Times" font-weight="bold" font-size="52.2" fill="#000000" transform="matrix(1.00, 0.00, -0.00, -1.00, 606.2, 12.1)">g</text><text xml:space="preserve" font-family="Times-Bold,Times" font-weight="bold" font-size="52.2" fill="#000000" transform="matrix(1.00, 0.00, -0.00, -1.00, 632.3, 12.1)">e</text><text xml:space="preserve" font-family="Times-Bold,Times" font-weight="bold" font-size="52.2" fill="#000000" transform="matrix(1.00, 0.00, -0.00, -1.00, 655.4, 12.1)">,</text><text xml:space="preserve" font-family="Times-Bold,Times" font-weight="bold" font-size="52.2" fill="#000000" transform="matrix(1.00, 0.00, -0.00, -1.00, 668.5, 12.1)"> </text><text xml:space="preserve" font-family="Times-Bold,Times" font-weight="bold" font-size="52.2" fill="#000000" transform="matrix(1.00, 0.00, -0.00, -1.00, 681.5, 12.1)">b</text><text xml:space="preserve" font-family="Times-Bold,Times" font-weight="bold" font-size="52.2" fill="#000000" transform="matrix(1.00, 0.00, -0.00, -1.00, 710.6, 12.1)">r</text><text xml:space="preserve" font-family="Times-Bold,Times" font-weight="bold" font-size="52.2" fill="#000000" transform="matrix(1.00, 0.00, -0.00, -1.00, 733.7, 12.1)">i</text><text xml:space="preserve" font-family="Times-Bold,Times" font-weight="bold" font-size="52.2" fill="#000000" transform="matrix(1.00, 0.00, -0.00, -1.00, 748.2, 12.1)">g</text><text xml:space="preserve" font-family="Times-Bold,Times" font-weight="bold" font-size="52.2" fill="#000000" transform="matrix(1.00, 0.00, -0.00, -1.00, 774.3, 12.1)">h</text><text xml:space="preserve" font-family="Times-Bold,Times" font-weight="bold" font-size="52.2" fill="#000000" transform="matrix(1.00, 0.00, -0.00, -1.00, 803.4, 12.1)">t</text><text xml:space="preserve" font-family="Times-Bold,Times" font-weight="bold" font-size="52.2" fill="#000000" transform="matrix(1.00, 0.00, -0.00, -1.00, 820.8, 12.1)">e</text><text xml:space="preserve" font-family="Times-Bold,Times" font-weight="bold" font-size="52.2" fill="#000000" transform="matrix(1.00, 0.00, -0.00, -1.00, 843.9, 12.1)">r</text><text xml:space="preserve" font-family="Times-Bold,Times" font-weight="bold" font-size="52.2" fill="#000000" transform="matrix(1.00, 0.00, -0.00, -1.00, 866.2, 12.1)"> </text><text xml:space="preserve" font-family="Times-Bold,Times" font-weight="bold" font-size="52.2" fill="#000000" transform="matrix(1.00, 0.00, -0.00, -1.00, 879.2, 12.1)">L</text><text xml:space="preserve" font-family="Times-Bold,Times" font-weight="bold" font-size="52.2" fill="#000000" transform="matrix(1.00, 0.00, -0.00, -1.00, 914.0, 12.1)">i</text><text xml:space="preserve" font-family="Times-Bold,Times" font-weight="bold" font-size="52.2" fill="#000000" transform="matrix(1.00, 0.00, -0.00, -1.00, 928.5, 12.1)">g</text><text xml:space="preserve" font-family="Times-Bold,Times" font-weight="bold" font-size="52.2" fill="#000000" transform="matrix(1.00, 0.00, -0.00, -1.00, 954.6, 12.1)">h</text><text xml:space="preserve" font-family="Times-Bold,Times" font-weight="bold" font-size="52.2" fill="#000000" transform="matrix(1.00, 0.00, -0.00, -1.00, 983.7, 12.1)">t</text></g></svg>