<?xml version="1.0" encoding="UTF-8" standalone="no"?><svg xmlns="http://www.w3.org/2000/svg" xmlns:xlink="http://www.w3.org/1999/xlink" clip-rule="evenodd" stroke-miterlimit="10" viewBox="0 0 1024 768"><desc>SVG generated by Keynote</desc><defs></defs><g transform="matrix(1.00, 0.00, -0.00, -1.00, 0.0, 768.0)"><path d="M 0.0 768.0 L 1024.0 768.0 L 1024.0 0.0 L 0.0 0.0 Z M 0.0 768.0 " fill="#FEFFFF"></path><image xlink:href="7B0C25EA6764B1F3E52460855CEB01EC.png" width="616.00" height="808.00" transform="matrix(1.00, 0.00, -0.00, -1.00, 434.6, 778.0)" opacity="0.70"></image><image xlink:href="C4F56697357FC996A914787228FB6078.jpeg" width="3264.00" height="2448.00" transform="matrix(0.00, -0.24, -0.24, 0.00, 1030.6, 768.0)"></image><text xml:space="preserve" font-family="Times-Bold,Times" font-weight="bold" font-size="66.0" fill="#000000" transform="matrix(1.00, 0.00, -0.00, -1.00, 67.5, 646.5)">B</text><text xml:space="preserve" font-family="Times-Bold,Times" font-weight="bold" font-size="66.0" fill="#000000" transform="matrix(1.00, 0.00, -0.00, -1.00, 111.5, 646.5)">r</text><text xml:space="preserve" font-family="Times-Bold,Times" font-weight="bold" font-size="66.0" fill="#000000" transform="matrix(1.00, 0.00, -0.00, -1.00, 139.6, 646.5)">e</text><text xml:space="preserve" font-family="Times-Bold,Times" font-weight="bold" font-size="66.0" fill="#000000" transform="matrix(1.00, 0.00, -0.00, -1.00, 168.9, 646.5)">a</text><text xml:space="preserve" font-family="Times-Bold,Times" font-weight="bold" font-size="66.0" fill="#000000" transform="matrix(1.00, 0.00, -0.00, -1.00, 201.9, 646.5)">d</text><text xml:space="preserve" font-family="Times-Bold,Times" font-weight="bold" font-size="66.0" fill="#000000" transform="matrix(1.00, 0.00, -0.00, -1.00, 238.6, 646.5)">b</text><text xml:space="preserve" font-family="Times-Bold,Times" font-weight="bold" font-size="66.0" fill="#000000" transform="matrix(1.00, 0.00, -0.00, -1.00, 275.3, 646.5)">o</text><text xml:space="preserve" font-family="Times-Bold,Times" font-weight="bold" font-size="66.0" fill="#000000" transform="matrix(1.00, 0.00, -0.00, -1.00, 308.3, 646.5)">a</text><text xml:space="preserve" font-family="Times-Bold,Times" font-weight="bold" font-size="66.0" fill="#000000" transform="matrix(1.00, 0.00, -0.00, -1.00, 341.3, 646.5)">r</text><text xml:space="preserve" font-family="Times-Bold,Times" font-weight="bold" font-size="66.0" fill="#000000" transform="matrix(1.00, 0.00, -0.00, -1.00, 370.6, 646.5)">d</text><text xml:space="preserve" font-family="Times-Roman,Times" font-size="45.0" fill="#000000" transform="matrix(1.00, 0.00, -0.00, -1.00, 9.3, 564.2)">i</text><text xml:space="preserve" font-family="Times-Roman,Times" font-size="45.0" fill="#000000" transform="matrix(1.00, 0.00, -0.00, -1.00, 21.7, 564.2)">s</text><text xml:space="preserve" font-family="Times-Roman,Times" font-size="45.0" fill="#000000" transform="matrix(1.00, 0.00, -0.00, -1.00, 39.3, 564.2)"> </text><text xml:space="preserve" font-family="Times-Roman,Times" font-size="45.0" fill="#000000" transform="matrix(1.00, 0.00, -0.00, -1.00, 50.5, 564.2)">u</text><text xml:space="preserve" font-family="Times-Roman,Times" font-size="45.0" fill="#000000" transform="matrix(1.00, 0.00, -0.00, -1.00, 73.0, 564.2)">s</text><text xml:space="preserve" font-family="Times-Roman,Times" font-size="45.0" fill="#000000" transform="matrix(1.00, 0.00, -0.00, -1.00, 90.5, 564.2)">u</text><text xml:space="preserve" font-family="Times-Roman,Times" font-size="45.0" fill="#000000" transform="matrix(1.00, 0.00, -0.00, -1.00, 113.0, 564.2)">a</text><text xml:space="preserve" font-family="Times-Roman,Times" font-size="45.0" fill="#000000" transform="matrix(1.00, 0.00, -0.00, -1.00, 133.0, 564.2)">l</text><text xml:space="preserve" font-family="Times-Roman,Times" font-size="45.0" fill="#000000" transform="matrix(1.00, 0.00, -0.00, -1.00, 145.5, 564.2)">l</text><text xml:space="preserve" font-family="Times-Roman,Times" font-size="45.0" fill="#000000" transform="matrix(1.00, 0.00, -0.00, -1.00, 158.0, 564.2)">y</text><text xml:space="preserve" font-family="Times-Roman,Times" font-size="45.0" fill="#000000" transform="matrix(1.00, 0.00, -0.00, -1.00, 180.5, 564.2)"> </text><text xml:space="preserve" font-family="Times-Roman,Times" font-size="45.0" fill="#000000" transform="matrix(1.00, 0.00, -0.00, -1.00, 191.7, 564.2)">a</text><text xml:space="preserve" font-family="Times-Roman,Times" font-size="45.0" fill="#000000" transform="matrix(1.00, 0.00, -0.00, -1.00, 211.7, 564.2)"> </text><text xml:space="preserve" font-family="Times-Roman,Times" font-size="45.0" fill="#000000" transform="matrix(1.00, 0.00, -0.00, -1.00, 223.0, 564.2)">c</text><text xml:space="preserve" font-family="Times-Roman,Times" font-size="45.0" fill="#000000" transform="matrix(1.00, 0.00, -0.00, -1.00, 242.9, 564.2)">o</text><text xml:space="preserve" font-family="Times-Roman,Times" font-size="45.0" fill="#000000" transform="matrix(1.00, 0.00, -0.00, -1.00, 265.4, 564.2)">n</text><text xml:space="preserve" font-family="Times-Roman,Times" font-size="45.0" fill="#000000" transform="matrix(1.00, 0.00, -0.00, -1.00, 287.9, 564.2)">s</text><text xml:space="preserve" font-family="Times-Roman,Times" font-size="45.0" fill="#000000" transform="matrix(1.00, 0.00, -0.00, -1.00, 305.4, 564.2)">t</text><text xml:space="preserve" font-family="Times-Roman,Times" font-size="45.0" fill="#000000" transform="matrix(1.00, 0.00, -0.00, -1.00, 317.9, 564.2)">r</text><text xml:space="preserve" font-family="Times-Roman,Times" font-size="45.0" fill="#000000" transform="matrix(1.00, 0.00, -0.00, -1.00, 332.9, 564.2)">u</text><text xml:space="preserve" font-family="Times-Roman,Times" font-size="45.0" fill="#000000" transform="matrix(1.00, 0.00, -0.00, -1.00, 355.4, 564.2)">c</text><text xml:space="preserve" font-family="Times-Roman,Times" font-size="45.0" fill="#000000" transform="matrix(1.00, 0.00, -0.00, -1.00, 375.4, 564.2)">t</text><text xml:space="preserve" font-family="Times-Roman,Times" font-size="45.0" fill="#000000" transform="matrix(1.00, 0.00, -0.00, -1.00, 387.9, 564.2)">i</text><text xml:space="preserve" font-family="Times-Roman,Times" font-size="45.0" fill="#000000" transform="matrix(1.00, 0.00, -0.00, -1.00, 400.4, 564.2)">o</text><text xml:space="preserve" font-family="Times-Roman,Times" font-size="45.0" fill="#000000" transform="matrix(1.00, 0.00, -0.00, -1.00, 422.9, 564.2)">n</text><text xml:space="preserve" font-family="Times-Roman,Times" font-size="45.0" fill="#000000" transform="matrix(1.00, 0.00, -0.00, -1.00, 445.4, 564.2)"> </text><text xml:space="preserve" font-family="Times-Roman,Times" font-size="45.0" fill="#000000" transform="matrix(1.00, 0.00, -0.00, -1.00, 9.3, 510.2)">b</text><text xml:space="preserve" font-family="Times-Roman,Times" font-size="45.0" fill="#000000" transform="matrix(1.00, 0.00, -0.00, -1.00, 31.8, 510.2)">a</text><text xml:space="preserve" font-family="Times-Roman,Times" font-size="45.0" fill="#000000" transform="matrix(1.00, 0.00, -0.00, -1.00, 51.7, 510.2)">s</text><text xml:space="preserve" font-family="Times-Roman,Times" font-size="45.0" fill="#000000" transform="matrix(1.00, 0.00, -0.00, -1.00, 69.2, 510.2)">e</text><text xml:space="preserve" font-family="Times-Roman,Times" font-size="45.0" fill="#000000" transform="matrix(1.00, 0.00, -0.00, -1.00, 89.2, 510.2)"> </text><text xml:space="preserve" font-family="Times-Roman,Times" font-size="45.0" fill="#000000" transform="matrix(1.00, 0.00, -0.00, -1.00, 100.5, 510.2)">f</text><text xml:space="preserve" font-family="Times-Roman,Times" font-size="45.0" fill="#000000" transform="matrix(1.00, 0.00, -0.00, -1.00, 115.4, 510.2)">o</text><text xml:space="preserve" font-family="Times-Roman,Times" font-size="45.0" fill="#000000" transform="matrix(1.00, 0.00, -0.00, -1.00, 137.9, 510.2)">r</text><text xml:space="preserve" font-family="Times-Roman,Times" font-size="45.0" fill="#000000" transform="matrix(1.00, 0.00, -0.00, -1.00, 152.9, 510.2)"> </text><text xml:space="preserve" font-family="Times-Roman,Times" font-size="45.0" fill="#000000" transform="matrix(1.00, 0.00, -0.00, -1.00, 164.2, 510.2)">p</text><text xml:space="preserve" font-family="Times-Roman,Times" font-size="45.0" fill="#000000" transform="matrix(1.00, 0.00, -0.00, -1.00, 186.7, 510.2)">r</text><text xml:space="preserve" font-family="Times-Roman,Times" font-size="45.0" fill="#000000" transform="matrix(1.00, 0.00, -0.00, -1.00, 201.7, 510.2)">o</text><text xml:space="preserve" font-family="Times-Roman,Times" font-size="45.0" fill="#000000" transform="matrix(1.00, 0.00, -0.00, -1.00, 224.2, 510.2)">t</text><text xml:space="preserve" font-family="Times-Roman,Times" font-size="45.0" fill="#000000" transform="matrix(1.00, 0.00, -0.00, -1.00, 236.7, 510.2)">o</text><text xml:space="preserve" font-family="Times-Roman,Times" font-size="45.0" fill="#000000" transform="matrix(1.00, 0.00, -0.00, -1.00, 259.2, 510.2)">t</text><text xml:space="preserve" font-family="Times-Roman,Times" font-size="45.0" fill="#000000" transform="matrix(1.00, 0.00, -0.00, -1.00, 271.6, 510.2)">y</text><text xml:space="preserve" font-family="Times-Roman,Times" font-size="45.0" fill="#000000" transform="matrix(1.00, 0.00, -0.00, -1.00, 294.1, 510.2)">p</text><text xml:space="preserve" font-family="Times-Roman,Times" font-size="45.0" fill="#000000" transform="matrix(1.00, 0.00, -0.00, -1.00, 316.6, 510.2)">i</text><text xml:space="preserve" font-family="Times-Roman,Times" font-size="45.0" fill="#000000" transform="matrix(1.00, 0.00, -0.00, -1.00, 329.1, 510.2)">n</text><text xml:space="preserve" font-family="Times-Roman,Times" font-size="45.0" fill="#000000" transform="matrix(1.00, 0.00, -0.00, -1.00, 351.6, 510.2)">g</text><text xml:space="preserve" font-family="Times-Roman,Times" font-size="45.0" fill="#000000" transform="matrix(1.00, 0.00, -0.00, -1.00, 374.1, 510.2)"> </text><text xml:space="preserve" font-family="Times-Roman,Times" font-size="45.0" fill="#000000" transform="matrix(1.00, 0.00, -0.00, -1.00, 385.4, 510.2)">o</text><text xml:space="preserve" font-family="Times-Roman,Times" font-size="45.0" fill="#000000" transform="matrix(1.00, 0.00, -0.00, -1.00, 407.9, 510.2)">f</text><text xml:space="preserve" font-family="Times-Roman,Times" font-size="45.0" fill="#000000" transform="matrix(1.00, 0.00, -0.00, -1.00, 422.9, 510.2)"> </text><text xml:space="preserve" font-family="Times-Roman,Times" font-size="45.0" fill="#000000" transform="matrix(1.00, 0.00, -0.00, -1.00, 9.3, 456.2)">e</text><text xml:space="preserve" font-family="Times-Roman,Times" font-size="45.0" fill="#000000" transform="matrix(1.00, 0.00, -0.00, -1.00, 29.2, 456.2)">l</text><text xml:space="preserve" font-family="Times-Roman,Times" font-size="45.0" fill="#000000" transform="matrix(1.00, 0.00, -0.00, -1.00, 41.7, 456.2)">e</text><text xml:space="preserve" font-family="Times-Roman,Times" font-size="45.0" fill="#000000" transform="matrix(1.00, 0.00, -0.00, -1.00, 61.7, 456.2)">c</text><text xml:space="preserve" font-family="Times-Roman,Times" font-size="45.0" fill="#000000" transform="matrix(1.00, 0.00, -0.00, -1.00, 81.6, 456.2)">t</text><text xml:space="preserve" font-family="Times-Roman,Times" font-size="45.0" fill="#000000" transform="matrix(1.00, 0.00, -0.00, -1.00, 94.1, 456.2)">r</text><text xml:space="preserve" font-family="Times-Roman,Times" font-size="45.0" fill="#000000" transform="matrix(1.00, 0.00, -0.00, -1.00, 109.1, 456.2)">o</text><text xml:space="preserve" font-family="Times-Roman,Times" font-size="45.0" fill="#000000" transform="matrix(1.00, 0.00, -0.00, -1.00, 131.6, 456.2)">n</text><text xml:space="preserve" font-family="Times-Roman,Times" font-size="45.0" fill="#000000" transform="matrix(1.00, 0.00, -0.00, -1.00, 154.1, 456.2)">i</text><text xml:space="preserve" font-family="Times-Roman,Times" font-size="45.0" fill="#000000" transform="matrix(1.00, 0.00, -0.00, -1.00, 166.6, 456.2)">c</text><text xml:space="preserve" font-family="Times-Roman,Times" font-size="45.0" fill="#000000" transform="matrix(1.00, 0.00, -0.00, -1.00, 186.6, 456.2)">s</text><text xml:space="preserve" font-family="Times-Roman,Times" font-size="45.0" fill="#000000" transform="matrix(1.00, 0.00, -0.00, -1.00, 204.1, 456.2)">.</text><text xml:space="preserve" font-family="Times-Roman,Times" font-size="45.0" fill="#000000" transform="matrix(1.00, 0.00, -0.00, -1.00, 215.3, 456.2)"> </text><text xml:space="preserve" font-family="LucidaGrande,Lucida Grande" font-size="45.0" fill="#000000" transform="matrix(1.00, 0.00, -0.00, -1.00, 226.7, 456.2)"> </text><text xml:space="preserve" font-family="LucidaGrande,Lucida Grande" font-size="45.0" fill="#000000" transform="matrix(1.00, 0.00, -0.00, -1.00, 9.3, 402.2)"> </text><text xml:space="preserve" font-family="Times-Roman,Times" font-size="45.0" fill="#000000" transform="matrix(1.00, 0.00, -0.00, -1.00, 9.3, 348.2)">T</text><text xml:space="preserve" font-family="Times-Roman,Times" font-size="45.0" fill="#000000" transform="matrix(1.00, 0.00, -0.00, -1.00, 36.7, 348.2)">h</text><text xml:space="preserve" font-family="Times-Roman,Times" font-size="45.0" fill="#000000" transform="matrix(1.00, 0.00, -0.00, -1.00, 59.2, 348.2)">e</text><text xml:space="preserve" font-family="Times-Roman,Times" font-size="45.0" fill="#000000" transform="matrix(1.00, 0.00, -0.00, -1.00, 79.2, 348.2)"> </text><text xml:space="preserve" font-family="Times-Roman,Times" font-size="45.0" fill="#000000" transform="matrix(1.00, 0.00, -0.00, -1.00, 90.4, 348.2)">t</text><text xml:space="preserve" font-family="Times-Roman,Times" font-size="45.0" fill="#000000" transform="matrix(1.00, 0.00, -0.00, -1.00, 102.9, 348.2)">e</text><text xml:space="preserve" font-family="Times-Roman,Times" font-size="45.0" fill="#000000" transform="matrix(1.00, 0.00, -0.00, -1.00, 122.9, 348.2)">r</text><text xml:space="preserve" font-family="Times-Roman,Times" font-size="45.0" fill="#000000" transform="matrix(1.00, 0.00, -0.00, -1.00, 137.9, 348.2)">m</text><text xml:space="preserve" font-family="Times-Roman,Times" font-size="45.0" fill="#000000" transform="matrix(1.00, 0.00, -0.00, -1.00, 172.9, 348.2)"> </text><text xml:space="preserve" font-family="Times-Roman,Times" font-size="45.0" fill="#000000" transform="matrix(1.00, 0.00, -0.00, -1.00, 184.1, 348.2)">"</text><text xml:space="preserve" font-family="Times-Roman,Times" font-size="45.0" fill="#000000" transform="matrix(1.00, 0.00, -0.00, -1.00, 202.5, 348.2)">b</text><text xml:space="preserve" font-family="Times-Roman,Times" font-size="45.0" fill="#000000" transform="matrix(1.00, 0.00, -0.00, -1.00, 225.0, 348.2)">r</text><text xml:space="preserve" font-family="Times-Roman,Times" font-size="45.0" fill="#000000" transform="matrix(1.00, 0.00, -0.00, -1.00, 240.0, 348.2)">e</text><text xml:space="preserve" font-family="Times-Roman,Times" font-size="45.0" fill="#000000" transform="matrix(1.00, 0.00, -0.00, -1.00, 260.0, 348.2)">a</text><text xml:space="preserve" font-family="Times-Roman,Times" font-size="45.0" fill="#000000" transform="matrix(1.00, 0.00, -0.00, -1.00, 279.9, 348.2)">d</text><text xml:space="preserve" font-family="Times-Roman,Times" font-size="45.0" fill="#000000" transform="matrix(1.00, 0.00, -0.00, -1.00, 302.4, 348.2)">b</text><text xml:space="preserve" font-family="Times-Roman,Times" font-size="45.0" fill="#000000" transform="matrix(1.00, 0.00, -0.00, -1.00, 324.9, 348.2)">o</text><text xml:space="preserve" font-family="Times-Roman,Times" font-size="45.0" fill="#000000" transform="matrix(1.00, 0.00, -0.00, -1.00, 347.4, 348.2)">a</text><text xml:space="preserve" font-family="Times-Roman,Times" font-size="45.0" fill="#000000" transform="matrix(1.00, 0.00, -0.00, -1.00, 367.4, 348.2)">r</text><text xml:space="preserve" font-family="Times-Roman,Times" font-size="45.0" fill="#000000" transform="matrix(1.00, 0.00, -0.00, -1.00, 382.4, 348.2)">d</text><text xml:space="preserve" font-family="Times-Roman,Times" font-size="45.0" fill="#000000" transform="matrix(1.00, 0.00, -0.00, -1.00, 404.9, 348.2)">"</text><text xml:space="preserve" font-family="Times-Roman,Times" font-size="45.0" fill="#000000" transform="matrix(1.00, 0.00, -0.00, -1.00, 423.3, 348.2)"> </text><text xml:space="preserve" font-family="Times-Roman,Times" font-size="45.0" fill="#000000" transform="matrix(1.00, 0.00, -0.00, -1.00, 9.3, 294.2)">i</text><text xml:space="preserve" font-family="Times-Roman,Times" font-size="45.0" fill="#000000" transform="matrix(1.00, 0.00, -0.00, -1.00, 21.7, 294.2)">s</text><text xml:space="preserve" font-family="Times-Roman,Times" font-size="45.0" fill="#000000" transform="matrix(1.00, 0.00, -0.00, -1.00, 39.3, 294.2)"> </text><text xml:space="preserve" font-family="Times-Roman,Times" font-size="45.0" fill="#000000" transform="matrix(1.00, 0.00, -0.00, -1.00, 50.5, 294.2)">c</text><text xml:space="preserve" font-family="Times-Roman,Times" font-size="45.0" fill="#000000" transform="matrix(1.00, 0.00, -0.00, -1.00, 70.5, 294.2)">o</text><text xml:space="preserve" font-family="Times-Roman,Times" font-size="45.0" fill="#000000" transform="matrix(1.00, 0.00, -0.00, -1.00, 93.0, 294.2)">m</text><text xml:space="preserve" font-family="Times-Roman,Times" font-size="45.0" fill="#000000" transform="matrix(1.00, 0.00, -0.00, -1.00, 128.0, 294.2)">m</text><text xml:space="preserve" font-family="Times-Roman,Times" font-size="45.0" fill="#000000" transform="matrix(1.00, 0.00, -0.00, -1.00, 163.0, 294.2)">o</text><text xml:space="preserve" font-family="Times-Roman,Times" font-size="45.0" fill="#000000" transform="matrix(1.00, 0.00, -0.00, -1.00, 185.5, 294.2)">n</text><text xml:space="preserve" font-family="Times-Roman,Times" font-size="45.0" fill="#000000" transform="matrix(1.00, 0.00, -0.00, -1.00, 208.0, 294.2)">l</text><text xml:space="preserve" font-family="Times-Roman,Times" font-size="45.0" fill="#000000" transform="matrix(1.00, 0.00, -0.00, -1.00, 220.5, 294.2)">y</text><text xml:space="preserve" font-family="Times-Roman,Times" font-size="45.0" fill="#000000" transform="matrix(1.00, 0.00, -0.00, -1.00, 243.0, 294.2)"> </text><text xml:space="preserve" font-family="Times-Roman,Times" font-size="45.0" fill="#000000" transform="matrix(1.00, 0.00, -0.00, -1.00, 254.2, 294.2)">u</text><text xml:space="preserve" font-family="Times-Roman,Times" font-size="45.0" fill="#000000" transform="matrix(1.00, 0.00, -0.00, -1.00, 276.7, 294.2)">s</text><text xml:space="preserve" font-family="Times-Roman,Times" font-size="45.0" fill="#000000" transform="matrix(1.00, 0.00, -0.00, -1.00, 294.2, 294.2)">e</text><text xml:space="preserve" font-family="Times-Roman,Times" font-size="45.0" fill="#000000" transform="matrix(1.00, 0.00, -0.00, -1.00, 314.2, 294.2)">d</text><text xml:space="preserve" font-family="Times-Roman,Times" font-size="45.0" fill="#000000" transform="matrix(1.00, 0.00, -0.00, -1.00, 336.7, 294.2)"> </text><text xml:space="preserve" font-family="Times-Roman,Times" font-size="45.0" fill="#000000" transform="matrix(1.00, 0.00, -0.00, -1.00, 348.0, 294.2)">t</text><text xml:space="preserve" font-family="Times-Roman,Times" font-size="45.0" fill="#000000" transform="matrix(1.00, 0.00, -0.00, -1.00, 360.4, 294.2)">o</text><text xml:space="preserve" font-family="Times-Roman,Times" font-size="45.0" fill="#000000" transform="matrix(1.00, 0.00, -0.00, -1.00, 382.9, 294.2)"> </text><text xml:space="preserve" font-family="Times-Roman,Times" font-size="45.0" fill="#000000" transform="matrix(1.00, 0.00, -0.00, -1.00, 9.3, 240.2)">r</text><text xml:space="preserve" font-family="Times-Roman,Times" font-size="45.0" fill="#000000" transform="matrix(1.00, 0.00, -0.00, -1.00, 24.2, 240.2)">e</text><text xml:space="preserve" font-family="Times-Roman,Times" font-size="45.0" fill="#000000" transform="matrix(1.00, 0.00, -0.00, -1.00, 44.2, 240.2)">f</text><text xml:space="preserve" font-family="Times-Roman,Times" font-size="45.0" fill="#000000" transform="matrix(1.00, 0.00, -0.00, -1.00, 59.2, 240.2)">e</text><text xml:space="preserve" font-family="Times-Roman,Times" font-size="45.0" fill="#000000" transform="matrix(1.00, 0.00, -0.00, -1.00, 79.2, 240.2)">r</text><text xml:space="preserve" font-family="Times-Roman,Times" font-size="45.0" fill="#000000" transform="matrix(1.00, 0.00, -0.00, -1.00, 94.1, 240.2)"> </text><text xml:space="preserve" font-family="Times-Roman,Times" font-size="45.0" fill="#000000" transform="matrix(1.00, 0.00, -0.00, -1.00, 105.4, 240.2)">t</text><text xml:space="preserve" font-family="Times-Roman,Times" font-size="45.0" fill="#000000" transform="matrix(1.00, 0.00, -0.00, -1.00, 117.9, 240.2)">o</text><text xml:space="preserve" font-family="Times-Roman,Times" font-size="45.0" fill="#000000" transform="matrix(1.00, 0.00, -0.00, -1.00, 140.4, 240.2)"> </text><text xml:space="preserve" font-family="Times-Roman,Times" font-size="45.0" fill="#000000" transform="matrix(1.00, 0.00, -0.00, -1.00, 151.6, 240.2)">a</text><text xml:space="preserve" font-family="Times-Roman,Times" font-size="45.0" fill="#000000" transform="matrix(1.00, 0.00, -0.00, -1.00, 171.6, 240.2)"> </text><text xml:space="preserve" font-family="Times-Roman,Times" font-size="45.0" fill="#000000" transform="matrix(1.00, 0.00, -0.00, -1.00, 182.8, 240.2)">s</text><text xml:space="preserve" font-family="Times-Roman,Times" font-size="45.0" fill="#000000" transform="matrix(1.00, 0.00, -0.00, -1.00, 200.4, 240.2)">o</text><text xml:space="preserve" font-family="Times-Roman,Times" font-size="45.0" fill="#000000" transform="matrix(1.00, 0.00, -0.00, -1.00, 222.9, 240.2)">l</text><text xml:space="preserve" font-family="Times-Roman,Times" font-size="45.0" fill="#000000" transform="matrix(1.00, 0.00, -0.00, -1.00, 235.4, 240.2)">d</text><text xml:space="preserve" font-family="Times-Roman,Times" font-size="45.0" fill="#000000" transform="matrix(1.00, 0.00, -0.00, -1.00, 257.9, 240.2)">e</text><text xml:space="preserve" font-family="Times-Roman,Times" font-size="45.0" fill="#000000" transform="matrix(1.00, 0.00, -0.00, -1.00, 277.8, 240.2)">r</text><text xml:space="preserve" font-family="Times-Roman,Times" font-size="45.0" fill="#000000" transform="matrix(1.00, 0.00, -0.00, -1.00, 292.8, 240.2)">l</text><text xml:space="preserve" font-family="Times-Roman,Times" font-size="45.0" fill="#000000" transform="matrix(1.00, 0.00, -0.00, -1.00, 305.3, 240.2)">e</text><text xml:space="preserve" font-family="Times-Roman,Times" font-size="45.0" fill="#000000" transform="matrix(1.00, 0.00, -0.00, -1.00, 325.3, 240.2)">s</text><text xml:space="preserve" font-family="Times-Roman,Times" font-size="45.0" fill="#000000" transform="matrix(1.00, 0.00, -0.00, -1.00, 342.8, 240.2)">s</text><text xml:space="preserve" font-family="Times-Roman,Times" font-size="45.0" fill="#000000" transform="matrix(1.00, 0.00, -0.00, -1.00, 360.3, 240.2)"> </text><text xml:space="preserve" font-family="Times-Roman,Times" font-size="45.0" fill="#000000" transform="matrix(1.00, 0.00, -0.00, -1.00, 9.3, 186.2)">b</text><text xml:space="preserve" font-family="Times-Roman,Times" font-size="45.0" fill="#000000" transform="matrix(1.00, 0.00, -0.00, -1.00, 31.8, 186.2)">r</text><text xml:space="preserve" font-family="Times-Roman,Times" font-size="45.0" fill="#000000" transform="matrix(1.00, 0.00, -0.00, -1.00, 46.7, 186.2)">e</text><text xml:space="preserve" font-family="Times-Roman,Times" font-size="45.0" fill="#000000" transform="matrix(1.00, 0.00, -0.00, -1.00, 66.7, 186.2)">a</text><text xml:space="preserve" font-family="Times-Roman,Times" font-size="45.0" fill="#000000" transform="matrix(1.00, 0.00, -0.00, -1.00, 86.7, 186.2)">d</text><text xml:space="preserve" font-family="Times-Roman,Times" font-size="45.0" fill="#000000" transform="matrix(1.00, 0.00, -0.00, -1.00, 109.2, 186.2)">b</text><text xml:space="preserve" font-family="Times-Roman,Times" font-size="45.0" fill="#000000" transform="matrix(1.00, 0.00, -0.00, -1.00, 131.7, 186.2)">o</text><text xml:space="preserve" font-family="Times-Roman,Times" font-size="45.0" fill="#000000" transform="matrix(1.00, 0.00, -0.00, -1.00, 154.2, 186.2)">a</text><text xml:space="preserve" font-family="Times-Roman,Times" font-size="45.0" fill="#000000" transform="matrix(1.00, 0.00, -0.00, -1.00, 174.1, 186.2)">r</text><text xml:space="preserve" font-family="Times-Roman,Times" font-size="45.0" fill="#000000" transform="matrix(1.00, 0.00, -0.00, -1.00, 189.1, 186.2)">d</text><text xml:space="preserve" font-family="Times-Roman,Times" font-size="45.0" fill="#000000" transform="matrix(1.00, 0.00, -0.00, -1.00, 211.6, 186.2)">.</text><text xml:space="preserve" font-family="Times-Roman,Times" font-size="45.0" fill="#000000" transform="matrix(1.00, 0.00, -0.00, -1.00, 222.9, 186.2)"> </text><text xml:space="preserve" font-family="LucidaGrande,Lucida Grande" font-size="40.0" fill="#52575F" transform="matrix(1.00, 0.00, -0.00, -1.00, 234.1, 186.2)"> </text><text xml:space="preserve" font-family="LucidaGrande,Lucida Grande" font-size="40.0" fill="#52575F" transform="matrix(1.00, 0.00, -0.00, -1.00, 9.3, 137.0)"> </text><text xml:space="preserve" font-family="Times-Roman,Times" font-size="34.0" fill="#52575F" transform="matrix(1.00, 0.00, -0.00, -1.00, 9.3, 89.8)">(</text><text xml:space="preserve" font-family="Times-Roman,Times" font-size="39.0" fill="#52575F" transform="matrix(1.00, 0.00, -0.00, -1.00, 20.6, 89.8)">h</text><text xml:space="preserve" font-family="Times-Roman,Times" font-size="39.0" fill="#52575F" transform="matrix(1.00, 0.00, -0.00, -1.00, 40.1, 89.8)">t</text><text xml:space="preserve" font-family="Times-Roman,Times" font-size="39.0" fill="#52575F" transform="matrix(1.00, 0.00, -0.00, -1.00, 50.9, 89.8)">t</text><text xml:space="preserve" font-family="Times-Roman,Times" font-size="39.0" fill="#52575F" transform="matrix(1.00, 0.00, -0.00, -1.00, 61.7, 89.8)">p</text><text xml:space="preserve" font-family="Times-Roman,Times" font-size="39.0" fill="#52575F" transform="matrix(1.00, 0.00, -0.00, -1.00, 81.2, 89.8)">:</text><text xml:space="preserve" font-family="Times-Roman,Times" font-size="39.0" fill="#52575F" transform="matrix(1.00, 0.00, -0.00, -1.00, 92.1, 89.8)">/</text><text xml:space="preserve" font-family="Times-Roman,Times" font-size="39.0" fill="#52575F" transform="matrix(1.00, 0.00, -0.00, -1.00, 102.9, 89.8)">/</text><text xml:space="preserve" font-family="Times-Roman,Times" font-size="39.0" fill="#52575F" transform="matrix(1.00, 0.00, -0.00, -1.00, 113.7, 89.8)">e</text><text xml:space="preserve" font-family="Times-Roman,Times" font-size="39.0" fill="#52575F" transform="matrix(1.00, 0.00, -0.00, -1.00, 131.0, 89.8)">n</text><text xml:space="preserve" font-family="Times-Roman,Times" font-size="39.0" fill="#52575F" transform="matrix(1.00, 0.00, -0.00, -1.00, 150.5, 89.8)">.</text><text xml:space="preserve" font-family="Times-Roman,Times" font-size="39.0" fill="#52575F" transform="matrix(1.00, 0.00, -0.00, -1.00, 160.3, 89.8)">w</text><text xml:space="preserve" font-family="Times-Roman,Times" font-size="39.0" fill="#52575F" transform="matrix(1.00, 0.00, -0.00, -1.00, 188.4, 89.8)">i</text><text xml:space="preserve" font-family="Times-Roman,Times" font-size="39.0" fill="#52575F" transform="matrix(1.00, 0.00, -0.00, -1.00, 199.3, 89.8)">k</text><text xml:space="preserve" font-family="Times-Roman,Times" font-size="39.0" fill="#52575F" transform="matrix(1.00, 0.00, -0.00, -1.00, 218.8, 89.8)">i</text><text xml:space="preserve" font-family="Times-Roman,Times" font-size="39.0" fill="#52575F" transform="matrix(1.00, 0.00, -0.00, -1.00, 229.6, 89.8)">p</text><text xml:space="preserve" font-family="Times-Roman,Times" font-size="39.0" fill="#52575F" transform="matrix(1.00, 0.00, -0.00, -1.00, 249.1, 89.8)">e</text><text xml:space="preserve" font-family="Times-Roman,Times" font-size="39.0" fill="#52575F" transform="matrix(1.00, 0.00, -0.00, -1.00, 266.4, 89.8)">d</text><text xml:space="preserve" font-family="Times-Roman,Times" font-size="39.0" fill="#52575F" transform="matrix(1.00, 0.00, -0.00, -1.00, 285.9, 89.8)">i</text><text xml:space="preserve" font-family="Times-Roman,Times" font-size="39.0" fill="#52575F" transform="matrix(1.00, 0.00, -0.00, -1.00, 296.7, 89.8)">a</text><text xml:space="preserve" font-family="Times-Roman,Times" font-size="39.0" fill="#52575F" transform="matrix(1.00, 0.00, -0.00, -1.00, 314.0, 89.8)">.</text><text xml:space="preserve" font-family="Times-Roman,Times" font-size="39.0" fill="#52575F" transform="matrix(1.00, 0.00, -0.00, -1.00, 323.8, 89.8)">o</text><text xml:space="preserve" font-family="Times-Roman,Times" font-size="39.0" fill="#52575F" transform="matrix(1.00, 0.00, -0.00, -1.00, 343.3, 89.8)">r</text><text xml:space="preserve" font-family="Times-Roman,Times" font-size="39.0" fill="#52575F" transform="matrix(1.00, 0.00, -0.00, -1.00, 355.6, 89.8)">g</text><text xml:space="preserve" font-family="Times-Roman,Times" font-size="39.0" fill="#52575F" transform="matrix(1.00, 0.00, -0.00, -1.00, 375.1, 89.8)">/</text><g><clipPath id="clip0x7faf75963890"><path d="M 19.6 84.8 L 386.0 84.8 L 386.0 88.8 L 19.6 88.8 Z M 19.6 84.8 "></path></clipPath><g clip-path="url(#clip0x7faf75963890)"><path d="M 15.3 524.2 L 380.7 524.2 " fill="none" stroke="#52575F" stroke-width="1.92" transform="matrix(1.00, 0.00, 0.00, -1.00, 5.3, 611.0)"></path></g></g><text xml:space="preserve" font-family="Times-Roman,Times" font-size="39.0" fill="#52575F" transform="matrix(1.00, 0.00, -0.00, -1.00, 9.3, 42.8)">w</text><text xml:space="preserve" font-family="Times-Roman,Times" font-size="39.0" fill="#52575F" transform="matrix(1.00, 0.00, -0.00, -1.00, 37.4, 42.8)">i</text><text xml:space="preserve" font-family="Times-Roman,Times" font-size="39.0" fill="#52575F" transform="matrix(1.00, 0.00, -0.00, -1.00, 48.3, 42.8)">k</text><text xml:space="preserve" font-family="Times-Roman,Times" font-size="39.0" fill="#52575F" transform="matrix(1.00, 0.00, -0.00, -1.00, 67.8, 42.8)">i</text><text xml:space="preserve" font-family="Times-Roman,Times" font-size="39.0" fill="#52575F" transform="matrix(1.00, 0.00, -0.00, -1.00, 78.6, 42.8)">/</text><text xml:space="preserve" font-family="Times-Roman,Times" font-size="39.0" fill="#52575F" transform="matrix(1.00, 0.00, -0.00, -1.00, 89.4, 42.8)">B</text><text xml:space="preserve" font-family="Times-Roman,Times" font-size="39.0" fill="#52575F" transform="matrix(1.00, 0.00, -0.00, -1.00, 115.4, 42.8)">r</text><text xml:space="preserve" font-family="Times-Roman,Times" font-size="39.0" fill="#52575F" transform="matrix(1.00, 0.00, -0.00, -1.00, 128.4, 42.8)">e</text><text xml:space="preserve" font-family="Times-Roman,Times" font-size="39.0" fill="#52575F" transform="matrix(1.00, 0.00, -0.00, -1.00, 145.7, 42.8)">a</text><text xml:space="preserve" font-family="Times-Roman,Times" font-size="39.0" fill="#52575F" transform="matrix(1.00, 0.00, -0.00, -1.00, 163.0, 42.8)">d</text><text xml:space="preserve" font-family="Times-Roman,Times" font-size="39.0" fill="#52575F" transform="matrix(1.00, 0.00, -0.00, -1.00, 182.5, 42.8)">b</text><text xml:space="preserve" font-family="Times-Roman,Times" font-size="39.0" fill="#52575F" transform="matrix(1.00, 0.00, -0.00, -1.00, 202.0, 42.8)">o</text><text xml:space="preserve" font-family="Times-Roman,Times" font-size="39.0" fill="#52575F" transform="matrix(1.00, 0.00, -0.00, -1.00, 221.5, 42.8)">a</text><text xml:space="preserve" font-family="Times-Roman,Times" font-size="39.0" fill="#52575F" transform="matrix(1.00, 0.00, -0.00, -1.00, 238.8, 42.8)">r</text><text xml:space="preserve" font-family="Times-Roman,Times" font-size="39.0" fill="#52575F" transform="matrix(1.00, 0.00, -0.00, -1.00, 251.8, 42.8)">d</text><text xml:space="preserve" font-family="Times-Roman,Times" font-size="32.0" fill="#52575F" transform="matrix(1.00, 0.00, -0.00, -1.00, 271.3, 42.8)">)</text><g><clipPath id="clip0x7faf75975430"><path d="M 8.3 37.8 L 271.3 37.8 L 271.3 41.8 L 8.3 41.8 Z M 8.3 37.8 "></path></clipPath><g clip-path="url(#clip0x7faf75975430)"><path d="M 4.0 571.2 L 266.1 571.2 " fill="none" stroke="#52575F" stroke-width="1.92" transform="matrix(1.00, 0.00, 0.00, -1.00, 5.3, 611.0)"></path></g></g></g></svg>